<svg xmlns="http://www.w3.org/2000/svg" viewBox="0 -4 50 54" shape-rendering="crispEdges">
  <g id="spaceocto-3-*{id}">
    <g id="spaceocto-3-*{id}-anchors" visibility="hidden">
      <circle id="spaceocto-3-*{id}-anchor-center" cx="25" cy="25" r="0.01"/>
      <circle id="spaceocto-3-*{id}-anchor-label-top" cx="25" cy="9" r="0.01"/>
      <circle id="spaceocto-3-*{id}-anchor-label-bottom" cx="25" cy="34" r="0.01"/>
    </g>
    <style>

@keyframes spaceocto-3-*{id}-bob {
  0%   { transform: translateY(0); }
  12%  { transform: translateY(0); }
  30%  { transform: translateY(-4.0px); }
  60%  { transform: translateY(-1px); }
  100% { transform: translateY(0); }
}
@keyframes spaceocto-3-*{id}-tilt-left {
  0%,12% { transform: rotate(0deg); }
  30%    { transform: rotate(-32deg); }
  60%    { transform: rotate(-6deg); }
  100%   { transform: rotate(0deg); }
}
@keyframes spaceocto-3-*{id}-tilt-right {
  0%,12% { transform: rotate(0deg); }
  30%    { transform: rotate(32deg); }
  60%    { transform: rotate(6deg); }
  100%   { transform: rotate(0deg); }
}
@keyframes spaceocto-3-*{id}-tilt-left-sm {
  0%,12% { transform: rotate(0deg); }
  30%    { transform: rotate(-12deg); }
  60%    { transform: rotate(-3deg); }
  100%   { transform: rotate(0deg); }
}
@keyframes spaceocto-3-*{id}-tilt-right-sm {
  0%,12% { transform: rotate(0deg); }
  30%    { transform: rotate(12deg); }
  60%    { transform: rotate(3deg); }
  100%   { transform: rotate(0deg); }
}

#spaceocto-3-*{id}-sprite,
#spaceocto-3-*{id}-head,
#spaceocto-3-*{id}-leg1, #spaceocto-3-*{id}-leg2,
#spaceocto-3-*{id}-leg3, #spaceocto-3-*{id}-leg4 {
  transform-box: fill-box;
  animation-duration: 1.4s;
  animation-iteration-count: infinite;
  animation-timing-function: ease-in-out;
}

#spaceocto-3-*{id}-sprite { animation-name: spaceocto-3-*{id}-bob; transform-origin: center; }

#spaceocto-3-*{id}-leg1,
#spaceocto-3-*{id}-leg2 { transform-origin: 100% 0%; }
#spaceocto-3-*{id}-leg3,
#spaceocto-3-*{id}-leg4 { transform-origin: 0% 0%; }

#spaceocto-3-*{id}-leg1 { animation-name: spaceocto-3-*{id}-tilt-left; }
#spaceocto-3-*{id}-leg2 { animation-name: spaceocto-3-*{id}-tilt-left-sm; }
#spaceocto-3-*{id}-leg3 { animation-name: spaceocto-3-*{id}-tilt-right-sm; }
#spaceocto-3-*{id}-leg4 { animation-name: spaceocto-3-*{id}-tilt-right; }

    </style>
    <g id="spaceocto-3-*{id}-wrapper" transform="translate(11, 11)">
      <g id="spaceocto-3-*{id}-sprite">
        <g id="spaceocto-3-*{id}-head">
          <rect x="9" y="2" width="1" height="1" fill="rgba(83,68,74,1.0000)"/>
          <rect x="10" y="2" width="1" height="1" fill="rgba(83,68,74,1.0000)"/>
          <rect x="11" y="2" width="1" height="1" fill="rgba(99,86,89,1.0000)"/>
          <rect x="12" y="2" width="1" height="1" fill="rgba(101,90,93,1.0000)"/>
          <rect x="13" y="2" width="1" height="1" fill="rgba(99,91,93,1.0000)"/>
          <rect x="14" y="2" width="1" height="1" fill="rgba(99,91,93,1.0000)"/>
          <rect x="15" y="2" width="1" height="1" fill="rgba(99,90,93,1.0000)"/>
          <rect x="16" y="2" width="1" height="1" fill="rgba(98,87,88,1.0000)"/>
          <rect x="17" y="2" width="1" height="1" fill="rgba(96,86,86,1.0000)"/>
          <rect x="18" y="2" width="1" height="1" fill="rgba(89,85,89,1.0000)"/>
          <rect x="7" y="3" width="1" height="1" fill="rgba(83,68,74,1.0000)"/>
          <rect x="8" y="3" width="1" height="1" fill="rgba(83,68,74,1.0000)"/>
          <rect x="9" y="3" width="1" height="1" fill="rgba(192,175,161,1.0000)"/>
          <rect x="10" y="3" width="1" height="1" fill="rgba(210,191,174,1.0000)"/>
          <rect x="11" y="3" width="1" height="1" fill="rgba(233,212,193,1.0000)"/>
          <rect x="12" y="3" width="1" height="1" fill="rgba(244,233,216,1.0000)"/>
          <rect x="13" y="3" width="1" height="1" fill="rgba(244,233,216,1.0000)"/>
          <rect x="14" y="3" width="1" height="1" fill="rgba(244,234,217,1.0000)"/>
          <rect x="15" y="3" width="1" height="1" fill="rgba(244,233,216,1.0000)"/>
          <rect x="16" y="3" width="1" height="1" fill="rgba(242,226,207,1.0000)"/>
          <rect x="17" y="3" width="1" height="1" fill="rgba(232,212,191,1.0000)"/>
          <rect x="18" y="3" width="1" height="1" fill="rgba(196,177,164,1.0000)"/>
          <rect x="19" y="3" width="1" height="1" fill="rgba(83,68,74,1.0000)"/>
          <rect x="6" y="4" width="1" height="1" fill="rgba(60,52,58,1.0000)"/>
          <rect x="7" y="4" width="1" height="1" fill="rgba(233,215,196,1.0000)"/>
          <rect x="8" y="4" width="1" height="1" fill="rgba(227,206,185,1.0000)"/>
          <rect x="9" y="4" width="1" height="1" fill="rgba(232,214,194,1.0000)"/>
          <rect x="10" y="4" width="1" height="1" fill="rgba(147,132,126,1.0000)"/>
          <rect x="11" y="4" width="1" height="1" fill="rgba(60,53,60,1.0000)"/>
          <rect x="12" y="4" width="1" height="1" fill="rgba(59,52,60,1.0000)"/>
          <rect x="13" y="4" width="1" height="1" fill="rgba(59,52,60,1.0000)"/>
          <rect x="14" y="4" width="1" height="1" fill="rgba(60,51,59,1.0000)"/>
          <rect x="15" y="4" width="1" height="1" fill="rgba(60,52,60,1.0000)"/>
          <rect x="16" y="4" width="1" height="1" fill="rgba(60,52,60,1.0000)"/>
          <rect x="17" y="4" width="1" height="1" fill="rgba(61,52,60,1.0000)"/>
          <rect x="18" y="4" width="1" height="1" fill="rgba(60,53,59,1.0000)"/>
          <rect x="19" y="4" width="1" height="1" fill="rgba(232,211,190,1.0000)"/>
          <rect x="20" y="4" width="1" height="1" fill="rgba(83,68,74,1.0000)"/>
          <rect x="5" y="5" width="1" height="1" fill="rgba(89,85,89,1.0000)"/>
          <rect x="6" y="5" width="1" height="1" fill="rgba(179,161,153,1.0000)"/>
          <rect x="7" y="5" width="1" height="1" fill="rgba(226,203,181,1.0000)"/>
          <rect x="8" y="5" width="1" height="1" fill="rgba(216,195,174,1.0000)"/>
          <rect x="9" y="5" width="1" height="1" fill="rgba(71,57,66,1.0000)"/>
          <rect x="10" y="5" width="1" height="1" fill="rgba(148,113,110,1.0000)"/>
          <rect x="11" y="5" width="1" height="1" fill="rgba(227,168,157,1.0000)"/>
          <rect x="12" y="5" width="1" height="1" fill="rgba(229,171,160,1.0000)"/>
          <rect x="13" y="5" width="1" height="1" fill="rgba(237,182,168,1.0000)"/>
          <rect x="14" y="5" width="1" height="1" fill="rgba(238,183,168,1.0000)"/>
          <rect x="15" y="5" width="1" height="1" fill="rgba(237,184,169,1.0000)"/>
          <rect x="16" y="5" width="1" height="1" fill="rgba(232,179,166,1.0000)"/>
          <rect x="17" y="5" width="1" height="1" fill="rgba(224,166,155,1.0000)"/>
          <rect x="18" y="5" width="1" height="1" fill="rgba(219,153,145,1.0000)"/>
          <rect x="19" y="5" width="1" height="1" fill="rgba(83,68,74,1.0000)"/>
          <rect x="20" y="5" width="1" height="1" fill="rgba(203,182,162,1.0000)"/>
          <rect x="21" y="5" width="1" height="1" fill="rgba(83,68,74,1.0000)"/>
          <rect x="5" y="6" width="1" height="1" fill="rgba(131,124,120,1.0000)"/>
          <rect x="6" y="6" width="1" height="1" fill="rgba(179,161,153,1.0000)"/>
          <rect x="7" y="6" width="1" height="1" fill="rgba(162,145,131,1.0000)"/>
          <rect x="8" y="6" width="1" height="1" fill="rgba(106,76,82,1.0000)"/>
          <rect x="9" y="6" width="1" height="1" fill="rgba(195,141,138,1.0000)"/>
          <rect x="10" y="6" width="1" height="1" fill="rgba(234,183,168,1.0000)"/>
          <rect x="11" y="6" width="1" height="1" fill="rgba(232,184,168,1.0000)"/>
          <rect x="12" y="6" width="1" height="1" fill="rgba(231,183,168,1.0000)"/>
          <rect x="13" y="6" width="1" height="1" fill="rgba(229,180,165,1.0000)"/>
          <rect x="14" y="6" width="1" height="1" fill="rgba(229,178,163,1.0000)"/>
          <rect x="15" y="6" width="1" height="1" fill="rgba(233,175,161,1.0000)"/>
          <rect x="16" y="6" width="1" height="1" fill="rgba(236,182,167,1.0000)"/>
          <rect x="17" y="6" width="1" height="1" fill="rgba(237,182,167,1.0000)"/>
          <rect x="18" y="6" width="1" height="1" fill="rgba(234,182,166,1.0000)"/>
          <rect x="19" y="6" width="1" height="1" fill="rgba(214,151,146,1.0000)"/>
          <rect x="20" y="6" width="1" height="1" fill="rgba(83,68,74,1.0000)"/>
          <rect x="21" y="6" width="1" height="1" fill="rgba(83,68,74,1.0000)"/>
          <rect x="4" y="7" width="1" height="1" fill="rgba(107,96,97,1.0000)"/>
          <rect x="5" y="7" width="1" height="1" fill="rgba(65,55,60,1.0000)"/>
          <rect x="6" y="7" width="1" height="1" fill="rgba(119,106,101,1.0000)"/>
          <rect x="7" y="7" width="1" height="1" fill="rgba(61,52,60,1.0000)"/>
          <rect x="8" y="7" width="1" height="1" fill="rgba(201,138,136,1.0000)"/>
          <rect x="9" y="7" width="1" height="1" fill="rgba(224,166,156,1.0000)"/>
          <rect x="10" y="7" width="1" height="1" fill="rgba(235,183,167,1.0000)"/>
          <rect x="11" y="7" width="1" height="1" fill="rgba(232,178,164,1.0000)"/>
          <rect x="12" y="7" width="1" height="1" fill="rgba(233,177,163,1.0000)"/>
          <rect x="13" y="7" width="1" height="1" fill="rgba(231,179,165,1.0000)"/>
          <rect x="14" y="7" width="1" height="1" fill="rgba(230,175,161,1.0000)"/>
          <rect x="15" y="7" width="1" height="1" fill="rgba(230,172,160,1.0000)"/>
          <rect x="16" y="7" width="1" height="1" fill="rgba(236,180,167,1.0000)"/>
          <rect x="17" y="7" width="1" height="1" fill="rgba(236,180,167,1.0000)"/>
          <rect x="18" y="7" width="1" height="1" fill="rgba(231,178,164,1.0000)"/>
          <rect x="19" y="7" width="1" height="1" fill="rgba(214,151,146,1.0000)"/>
          <rect x="20" y="7" width="1" height="1" fill="rgba(190,122,125,1.0000)"/>
          <rect x="21" y="7" width="1" height="1" fill="rgba(83,68,74,1.0000)"/>
          <rect x="4" y="8" width="1" height="1" fill="rgba(78,68,66,1.0000)"/>
          <rect x="5" y="8" width="1" height="1" fill="rgba(227,206,185,1.0000)"/>
          <rect x="6" y="8" width="1" height="1" fill="rgba(65,55,60,1.0000)"/>
          <rect x="7" y="8" width="1" height="1" fill="rgba(61,53,60,1.0000)"/>
          <rect x="8" y="8" width="1" height="1" fill="rgba(214,151,146,1.0000)"/>
          <rect x="9" y="8" width="1" height="1" fill="rgba(223,165,155,1.0000)"/>
          <rect x="10" y="8" width="1" height="1" fill="rgba(234,185,168,1.0000)"/>
          <rect x="11" y="8" width="1" height="1" fill="rgba(232,175,161,1.0000)"/>
          <rect x="12" y="8" width="1" height="1" fill="rgba(233,175,161,1.0000)"/>
          <rect x="13" y="8" width="1" height="1" fill="rgba(233,180,166,1.0000)"/>
          <rect x="14" y="8" width="1" height="1" fill="rgba(229,175,161,1.0000)"/>
          <rect x="15" y="8" width="1" height="1" fill="rgba(229,171,159,1.0000)"/>
          <rect x="16" y="8" width="1" height="1" fill="rgba(235,179,166,1.0000)"/>
          <rect x="17" y="8" width="1" height="1" fill="rgba(235,179,166,1.0000)"/>
          <rect x="18" y="8" width="1" height="1" fill="rgba(229,177,163,1.0000)"/>
          <rect x="19" y="8" width="1" height="1" fill="rgba(213,151,142,1.0000)"/>
          <rect x="20" y="8" width="1" height="1" fill="rgba(213,151,142,1.0000)"/>
          <rect x="21" y="8" width="1" height="1" fill="rgba(83,68,74,1.0000)"/>
          <rect x="4" y="9" width="1" height="1" fill="rgba(65,53,55,1.0000)"/>
          <rect x="5" y="9" width="1" height="1" fill="rgba(181,159,145,1.0000)"/>
          <rect x="6" y="9" width="1" height="1" fill="rgba(119,112,109,1.0000)"/>
          <rect x="7" y="9" width="1" height="1" fill="rgba(61,52,60,1.0000)"/>
          <rect x="8" y="9" width="1" height="1" fill="rgba(190,122,125,1.0000)"/>
          <rect x="9" y="9" width="1" height="1" fill="rgba(213,151,142,1.0000)"/>
          <rect x="10" y="9" width="1" height="1" fill="rgba(228,170,158,1.0000)"/>
          <rect x="11" y="9" width="1" height="1" fill="rgba(124,98,99,1.0000)"/>
          <rect x="12" y="9" width="1" height="1" fill="rgba(74,61,68,1.0000)"/>
          <rect x="13" y="9" width="1" height="1" fill="rgba(235,178,166,1.0000)"/>
          <rect x="14" y="9" width="1" height="1" fill="rgba(231,174,161,1.0000)"/>
          <rect x="15" y="9" width="1" height="1" fill="rgba(228,170,158,1.0000)"/>
          <rect x="16" y="9" width="1" height="1" fill="rgba(232,174,162,1.0000)"/>
          <rect x="17" y="9" width="1" height="1" fill="rgba(124,98,99,1.0000)"/>
          <rect x="18" y="9" width="1" height="1" fill="rgba(76,62,70,1.0000)"/>
          <rect x="19" y="9" width="1" height="1" fill="rgba(222,163,151,1.0000)"/>
          <rect x="20" y="9" width="1" height="1" fill="rgba(213,151,142,1.0000)"/>
          <rect x="21" y="9" width="1" height="1" fill="rgba(83,68,74,1.0000)"/>
          <rect x="4" y="10" width="1" height="1" fill="rgba(65,55,60,1.0000)"/>
          <rect x="5" y="10" width="1" height="1" fill="rgba(147,126,122,1.0000)"/>
          <rect x="6" y="10" width="1" height="1" fill="rgba(119,112,109,1.0000)"/>
          <rect x="7" y="10" width="1" height="1" fill="rgba(60,52,59,1.0000)"/>
          <rect x="8" y="10" width="1" height="1" fill="rgba(187,120,123,1.0000)"/>
          <rect x="9" y="10" width="1" height="1" fill="rgba(214,150,142,1.0000)"/>
          <rect x="10" y="10" width="1" height="1" fill="rgba(229,171,160,1.0000)"/>
          <rect x="11" y="10" width="1" height="1" fill="rgba(124,98,99,1.0000)"/>
          <rect x="12" y="10" width="1" height="1" fill="rgba(74,61,68,1.0000)"/>
          <rect x="13" y="10" width="1" height="1" fill="rgba(229,172,160,1.0000)"/>
          <rect x="14" y="10" width="1" height="1" fill="rgba(229,172,159,1.0000)"/>
          <rect x="15" y="10" width="1" height="1" fill="rgba(229,171,159,1.0000)"/>
          <rect x="16" y="10" width="1" height="1" fill="rgba(230,173,160,1.0000)"/>
          <rect x="17" y="10" width="1" height="1" fill="rgba(124,98,99,1.0000)"/>
          <rect x="18" y="10" width="1" height="1" fill="rgba(76,62,70,1.0000)"/>
          <rect x="19" y="10" width="1" height="1" fill="rgba(222,163,151,1.0000)"/>
          <rect x="20" y="10" width="1" height="1" fill="rgba(213,151,142,1.0000)"/>
          <rect x="21" y="10" width="1" height="1" fill="rgba(83,68,74,1.0000)"/>
          <rect x="4" y="11" width="1" height="1" fill="rgba(65,55,60,1.0000)"/>
          <rect x="5" y="11" width="1" height="1" fill="rgba(153,135,132,1.0000)"/>
          <rect x="6" y="11" width="1" height="1" fill="rgba(107,96,97,1.0000)"/>
          <rect x="7" y="11" width="1" height="1" fill="rgba(62,52,61,1.0000)"/>
          <rect x="8" y="11" width="1" height="1" fill="rgba(186,115,120,1.0000)"/>
          <rect x="9" y="11" width="1" height="1" fill="rgba(217,149,143,1.0000)"/>
          <rect x="10" y="11" width="1" height="1" fill="rgba(231,173,161,1.0000)"/>
          <rect x="11" y="11" width="1" height="1" fill="rgba(162,129,125,1.0000)"/>
          <rect x="12" y="11" width="1" height="1" fill="rgba(88,76,80,1.0000)"/>
          <rect x="13" y="11" width="1" height="1" fill="rgba(223,165,153,1.0000)"/>
          <rect x="14" y="11" width="1" height="1" fill="rgba(226,167,156,1.0000)"/>
          <rect x="15" y="11" width="1" height="1" fill="rgba(228,170,158,1.0000)"/>
          <rect x="16" y="11" width="1" height="1" fill="rgba(227,169,157,1.0000)"/>
          <rect x="17" y="11" width="1" height="1" fill="rgba(162,129,125,1.0000)"/>
          <rect x="18" y="11" width="1" height="1" fill="rgba(88,76,80,1.0000)"/>
          <rect x="19" y="11" width="1" height="1" fill="rgba(222,163,151,1.0000)"/>
          <rect x="20" y="11" width="1" height="1" fill="rgba(216,152,144,1.0000)"/>
          <rect x="21" y="11" width="1" height="1" fill="rgba(83,68,74,1.0000)"/>
          <rect x="5" y="12" width="1" height="1" fill="rgba(65,55,60,1.0000)"/>
          <rect x="6" y="12" width="1" height="1" fill="rgba(78,68,66,1.0000)"/>
          <rect x="7" y="12" width="1" height="1" fill="rgba(60,52,59,1.0000)"/>
          <rect x="8" y="12" width="1" height="1" fill="rgba(167,109,113,1.0000)"/>
          <rect x="9" y="12" width="1" height="1" fill="rgba(209,137,134,1.0000)"/>
          <rect x="10" y="12" width="1" height="1" fill="rgba(228,167,156,1.0000)"/>
          <rect x="11" y="12" width="1" height="1" fill="rgba(230,175,161,1.0000)"/>
          <rect x="12" y="12" width="1" height="1" fill="rgba(231,178,164,1.0000)"/>
          <rect x="13" y="12" width="1" height="1" fill="rgba(231,178,163,1.0000)"/>
          <rect x="14" y="12" width="1" height="1" fill="rgba(230,177,163,1.0000)"/>
          <rect x="15" y="12" width="1" height="1" fill="rgba(231,175,162,1.0000)"/>
          <rect x="16" y="12" width="1" height="1" fill="rgba(227,171,158,1.0000)"/>
          <rect x="17" y="12" width="1" height="1" fill="rgba(227,170,158,1.0000)"/>
          <rect x="18" y="12" width="1" height="1" fill="rgba(221,158,149,1.0000)"/>
          <rect x="19" y="12" width="1" height="1" fill="rgba(219,158,149,1.0000)"/>
          <rect x="20" y="12" width="1" height="1" fill="rgba(195,125,124,1.0000)"/>
          <rect x="21" y="12" width="1" height="1" fill="rgba(83,68,74,1.0000)"/>
          <rect x="5" y="13" width="1" height="1" fill="rgba(78,68,66,1.0000)"/>
          <rect x="6" y="13" width="1" height="1" fill="rgba(139,122,118,1.0000)"/>
          <rect x="7" y="13" width="1" height="1" fill="rgba(157,136,131,1.0000)"/>
          <rect x="8" y="13" width="1" height="1" fill="rgba(88,76,80,1.0000)"/>
          <rect x="9" y="13" width="1" height="1" fill="rgba(154,103,106,1.0000)"/>
          <rect x="10" y="13" width="1" height="1" fill="rgba(210,154,144,1.0000)"/>
          <rect x="11" y="13" width="1" height="1" fill="rgba(230,173,160,1.0000)"/>
          <rect x="12" y="13" width="1" height="1" fill="rgba(232,176,162,1.0000)"/>
          <rect x="13" y="13" width="1" height="1" fill="rgba(232,176,162,1.0000)"/>
          <rect x="14" y="13" width="1" height="1" fill="rgba(231,175,162,1.0000)"/>
          <rect x="15" y="13" width="1" height="1" fill="rgba(230,174,161,1.0000)"/>
          <rect x="16" y="13" width="1" height="1" fill="rgba(226,169,156,1.0000)"/>
          <rect x="17" y="13" width="1" height="1" fill="rgba(226,168,156,1.0000)"/>
          <rect x="18" y="13" width="1" height="1" fill="rgba(218,153,145,1.0000)"/>
          <rect x="19" y="13" width="1" height="1" fill="rgba(180,128,122,1.0000)"/>
          <rect x="20" y="13" width="1" height="1" fill="rgba(113,81,85,1.0000)"/>
          <rect x="21" y="13" width="1" height="1" fill="rgba(76,68,75,1.0000)"/>
          <rect x="6" y="14" width="1" height="1" fill="rgba(59,51,59,1.0000)"/>
          <rect x="7" y="14" width="1" height="1" fill="rgba(95,82,84,1.0000)"/>
          <rect x="8" y="14" width="1" height="1" fill="rgba(159,139,131,1.0000)"/>
          <rect x="9" y="14" width="1" height="1" fill="rgba(143,127,121,1.0000)"/>
          <rect x="10" y="14" width="1" height="1" fill="rgba(129,107,106,1.0000)"/>
          <rect x="11" y="14" width="1" height="1" fill="rgba(121,93,91,1.0000)"/>
          <rect x="12" y="14" width="1" height="1" fill="rgba(121,95,94,1.0000)"/>
          <rect x="13" y="14" width="1" height="1" fill="rgba(121,95,94,1.0000)"/>
          <rect x="14" y="14" width="1" height="1" fill="rgba(121,94,94,1.0000)"/>
          <rect x="15" y="14" width="1" height="1" fill="rgba(120,95,92,1.0000)"/>
          <rect x="16" y="14" width="1" height="1" fill="rgba(117,91,92,1.0000)"/>
          <rect x="17" y="14" width="1" height="1" fill="rgba(117,91,91,1.0000)"/>
          <rect x="18" y="14" width="1" height="1" fill="rgba(113,81,85,1.0000)"/>
          <rect x="19" y="14" width="1" height="1" fill="rgba(113,81,85,1.0000)"/>
          <rect x="20" y="14" width="1" height="1" fill="rgba(76,68,75,1.0000)"/>
          <rect x="6" y="15" width="1" height="1" fill="rgba(59,51,59,1.0000)"/>
          <rect x="7" y="15" width="1" height="1" fill="rgba(210,188,168,1.0000)"/>
          <rect x="8" y="15" width="1" height="1" fill="rgba(211,187,164,1.0000)"/>
          <rect x="9" y="15" width="1" height="1" fill="rgba(195,184,171,1.0000)"/>
          <rect x="10" y="15" width="1" height="1" fill="rgba(93,80,84,1.0000)"/>
          <rect x="11" y="15" width="1" height="1" fill="rgba(179,161,153,1.0000)"/>
          <rect x="12" y="15" width="1" height="1" fill="rgba(186,168,157,1.0000)"/>
          <rect x="13" y="15" width="1" height="1" fill="rgba(233,219,210,1.0000)"/>
          <rect x="14" y="15" width="1" height="1" fill="rgba(233,220,210,1.0000)"/>
          <rect x="15" y="15" width="1" height="1" fill="rgba(233,219,209,1.0000)"/>
          <rect x="16" y="15" width="1" height="1" fill="rgba(233,220,206,1.0000)"/>
          <rect x="17" y="15" width="1" height="1" fill="rgba(179,159,149,1.0000)"/>
          <rect x="18" y="15" width="1" height="1" fill="rgba(123,104,104,1.0000)"/>
          <rect x="19" y="15" width="1" height="1" fill="rgba(76,68,75,1.0000)"/>
          <rect x="20" y="15" width="1" height="1" fill="rgba(119,106,101,1.0000)"/>
          <rect x="21" y="15" width="1" height="1" fill="rgba(76,68,75,1.0000)"/>
          <rect x="6" y="16" width="1" height="1" fill="rgba(75,67,72,1.0000)"/>
          <rect x="7" y="16" width="1" height="1" fill="rgba(99,92,93,1.0000)"/>
          <rect x="8" y="16" width="1" height="1" fill="rgba(58,51,58,1.0000)"/>
          <rect x="9" y="16" width="1" height="1" fill="rgba(163,145,132,1.0000)"/>
          <rect x="10" y="16" width="1" height="1" fill="rgba(191,171,154,1.0000)"/>
          <rect x="11" y="16" width="1" height="1" fill="rgba(219,198,178,1.0000)"/>
          <rect x="12" y="16" width="1" height="1" fill="rgba(223,203,183,1.0000)"/>
          <rect x="13" y="16" width="1" height="1" fill="rgba(235,224,205,1.0000)"/>
          <rect x="14" y="16" width="1" height="1" fill="rgba(236,224,206,1.0000)"/>
          <rect x="15" y="16" width="1" height="1" fill="rgba(236,225,207,1.0000)"/>
          <rect x="16" y="16" width="1" height="1" fill="rgba(234,225,205,1.0000)"/>
          <rect x="17" y="16" width="1" height="1" fill="rgba(221,200,178,1.0000)"/>
          <rect x="18" y="16" width="1" height="1" fill="rgba(221,200,180,1.0000)"/>
          <rect x="19" y="16" width="1" height="1" fill="rgba(162,142,129,1.0000)"/>
          <rect x="20" y="16" width="1" height="1" fill="rgba(142,126,123,1.0000)"/>
          <rect x="21" y="16" width="1" height="1" fill="rgba(59,52,59,1.0000)"/>
          <rect x="6" y="17" width="1" height="1" fill="rgba(58,51,58,1.0000)"/>
          <rect x="7" y="17" width="1" height="1" fill="rgba(242,234,216,1.0000)"/>
          <rect x="8" y="17" width="1" height="1" fill="rgba(189,167,150,1.0000)"/>
          <rect x="9" y="17" width="1" height="1" fill="rgba(192,170,153,1.0000)"/>
          <rect x="10" y="17" width="1" height="1" fill="rgba(176,157,144,1.0000)"/>
          <rect x="11" y="17" width="1" height="1" fill="rgba(128,111,108,1.0000)"/>
          <rect x="12" y="17" width="1" height="1" fill="rgba(123,106,103,1.0000)"/>
          <rect x="13" y="17" width="1" height="1" fill="rgba(123,106,103,1.0000)"/>
          <rect x="14" y="17" width="1" height="1" fill="rgba(124,106,102,1.0000)"/>
          <rect x="15" y="17" width="1" height="1" fill="rgba(123,107,103,1.0000)"/>
          <rect x="16" y="17" width="1" height="1" fill="rgba(124,106,103,1.0000)"/>
          <rect x="17" y="17" width="1" height="1" fill="rgba(123,107,103,1.0000)"/>
          <rect x="18" y="17" width="1" height="1" fill="rgba(144,129,121,1.0000)"/>
          <rect x="19" y="17" width="1" height="1" fill="rgba(205,183,166,1.0000)"/>
          <rect x="20" y="17" width="1" height="1" fill="rgba(119,106,101,1.0000)"/>
          <rect x="21" y="17" width="1" height="1" fill="rgba(76,68,75,1.0000)"/>
          <rect x="6" y="18" width="1" height="1" fill="rgba(66,58,64,1.0000)"/>
          <rect x="7" y="18" width="1" height="1" fill="rgba(95,85,85,1.0000)"/>
          <rect x="8" y="18" width="1" height="1" fill="rgba(76,65,71,1.0000)"/>
          <rect x="9" y="18" width="1" height="1" fill="rgba(199,178,159,1.0000)"/>
          <rect x="10" y="18" width="1" height="1" fill="rgba(229,211,189,1.0000)"/>
          <rect x="11" y="18" width="1" height="1" fill="rgba(241,231,212,1.0000)"/>
          <rect x="12" y="18" width="1" height="1" fill="rgba(240,229,211,1.0000)"/>
          <rect x="13" y="18" width="1" height="1" fill="rgba(232,221,204,1.0000)"/>
          <rect x="14" y="18" width="1" height="1" fill="rgba(231,218,201,1.0000)"/>
          <rect x="15" y="18" width="1" height="1" fill="rgba(232,217,199,1.0000)"/>
          <rect x="16" y="18" width="1" height="1" fill="rgba(233,219,202,1.0000)"/>
          <rect x="17" y="18" width="1" height="1" fill="rgba(218,206,189,1.0000)"/>
          <rect x="18" y="18" width="1" height="1" fill="rgba(242,234,215,1.0000)"/>
          <rect x="19" y="18" width="1" height="1" fill="rgba(227,206,183,1.0000)"/>
          <rect x="20" y="18" width="1" height="1" fill="rgba(69,59,66,1.0000)"/>
          <rect x="21" y="18" width="1" height="1" fill="rgba(69,61,67,1.0000)"/>
          <rect x="9" y="19" width="1" height="1" fill="rgba(78,68,76,1.0000)"/>
          <rect x="10" y="19" width="1" height="1" fill="rgba(78,68,76,1.0000)"/>
          <rect x="11" y="19" width="1" height="1" fill="rgba(78,68,76,1.0000)"/>
          <rect x="12" y="19" width="1" height="1" fill="rgba(219,196,176,1.0000)"/>
          <rect x="13" y="19" width="1" height="1" fill="rgba(233,213,191,1.0000)"/>
          <rect x="14" y="19" width="1" height="1" fill="rgba(243,233,214,1.0000)"/>
          <rect x="15" y="19" width="1" height="1" fill="rgba(244,233,215,1.0000)"/>
          <rect x="16" y="19" width="1" height="1" fill="rgba(241,228,211,1.0000)"/>
          <rect x="17" y="19" width="1" height="1" fill="rgba(213,193,174,1.0000)"/>
          <rect x="18" y="19" width="1" height="1" fill="rgba(78,68,76,1.0000)"/>
          <rect x="19" y="19" width="1" height="1" fill="rgba(78,68,76,1.0000)"/>
          <rect x="12" y="20" width="1" height="1" fill="rgba(107,93,93,1.0000)"/>
          <rect x="13" y="20" width="1" height="1" fill="rgba(203,181,163,1.0000)"/>
          <rect x="14" y="20" width="1" height="1" fill="rgba(214,195,175,1.0000)"/>
          <rect x="15" y="20" width="1" height="1" fill="rgba(217,198,179,1.0000)"/>
          <rect x="16" y="20" width="1" height="1" fill="rgba(211,193,174,1.0000)"/>
          <rect x="17" y="20" width="1" height="1" fill="rgba(100,86,86,1.0000)"/>
          <rect x="13" y="21" width="1" height="1" fill="rgba(85,73,77,1.0000)"/>
          <rect x="14" y="21" width="1" height="1" fill="rgba(82,71,75,1.0000)"/>
          <rect x="15" y="21" width="1" height="1" fill="rgba(82,71,75,1.0000)"/>
          <rect x="16" y="21" width="1" height="1" fill="rgba(81,69,74,1.0000)"/>
        </g>
        <g id="spaceocto-3-*{id}-leg1">
          <rect x="4" y="19" width="1" height="1" fill="rgba(75,62,68,1.0000)"/>
          <rect x="5" y="19" width="1" height="1" fill="rgba(76,63,68,1.0000)"/>
          <rect x="6" y="19" width="1" height="1" fill="rgba(230,175,160,1.0000)"/>
          <rect x="7" y="19" width="1" height="1" fill="rgba(213,147,142,1.0000)"/>
          <rect x="8" y="19" width="1" height="1" fill="rgba(76,56,61,1.0000)"/>
          <rect x="3" y="20" width="1" height="1" fill="rgba(64,55,61,1.0000)"/>
          <rect x="4" y="20" width="1" height="1" fill="rgba(222,161,149,1.0000)"/>
          <rect x="5" y="20" width="1" height="1" fill="rgba(230,178,161,1.0000)"/>
          <rect x="6" y="20" width="1" height="1" fill="rgba(216,152,143,1.0000)"/>
          <rect x="7" y="20" width="1" height="1" fill="rgba(195,129,128,1.0000)"/>
          <rect x="8" y="20" width="1" height="1" fill="rgba(118,80,87,1.0000)"/>
          <rect x="3" y="21" width="1" height="1" fill="rgba(63,53,62,1.0000)"/>
          <rect x="4" y="21" width="1" height="1" fill="rgba(183,125,123,1.0000)"/>
          <rect x="5" y="21" width="1" height="1" fill="rgba(186,129,128,1.0000)"/>
          <rect x="6" y="21" width="1" height="1" fill="rgba(181,120,122,1.0000)"/>
          <rect x="7" y="21" width="1" height="1" fill="rgba(104,75,83,1.0000)"/>
          <rect x="8" y="21" width="1" height="1" fill="rgba(74,60,68,1.0000)"/>
          <rect x="4" y="22" width="1" height="1" fill="rgba(67,59,66,1.0000)"/>
          <rect x="5" y="22" width="1" height="1" fill="rgba(67,58,65,1.0000)"/>
          <rect x="6" y="22" width="1" height="1" fill="rgba(67,57,64,1.0000)"/>
        </g>
        <g id="spaceocto-3-*{id}-leg2">
          <rect x="9" y="20" width="1" height="1" fill="rgba(84,67,73,1.0000)"/>
          <rect x="10" y="20" width="1" height="1" fill="rgba(193,134,131,1.0000)"/>
          <rect x="11" y="20" width="1" height="1" fill="rgba(225,168,158,1.0000)"/>
          <rect x="9" y="21" width="1" height="1" fill="rgba(84,67,72,1.0000)"/>
          <rect x="10" y="21" width="1" height="1" fill="rgba(194,133,132,1.0000)"/>
          <rect x="11" y="21" width="1" height="1" fill="rgba(229,174,160,1.0000)"/>
          <rect x="12" y="21" width="1" height="1" fill="rgba(176,122,122,1.0000)"/>
          <rect x="8" y="22" width="1" height="1" fill="rgba(71,64,72,1.0000)"/>
          <rect x="9" y="22" width="1" height="1" fill="rgba(118,80,87,1.0000)"/>
          <rect x="10" y="22" width="1" height="1" fill="rgba(208,138,135,1.0000)"/>
          <rect x="11" y="22" width="1" height="1" fill="rgba(222,158,150,1.0000)"/>
          <rect x="12" y="22" width="1" height="1" fill="rgba(172,116,118,1.0000)"/>
          <rect x="13" y="22" width="1" height="1" fill="rgba(130,92,96,1.0000)"/>
          <rect x="14" y="22" width="1" height="1" fill="rgba(78,68,76,1.0000)"/>
          <rect x="7" y="23" width="1" height="1" fill="rgba(64,55,64,1.0000)"/>
          <rect x="8" y="23" width="1" height="1" fill="rgba(170,114,117,1.0000)"/>
          <rect x="9" y="23" width="1" height="1" fill="rgba(210,138,136,1.0000)"/>
          <rect x="10" y="23" width="1" height="1" fill="rgba(208,134,133,1.0000)"/>
          <rect x="11" y="23" width="1" height="1" fill="rgba(182,121,120,1.0000)"/>
          <rect x="12" y="23" width="1" height="1" fill="rgba(160,107,110,1.0000)"/>
          <rect x="13" y="23" width="1" height="1" fill="rgba(78,68,76,1.0000)"/>
          <rect x="7" y="24" width="1" height="1" fill="rgba(62,55,63,1.0000)"/>
          <rect x="8" y="24" width="1" height="1" fill="rgba(166,113,115,1.0000)"/>
          <rect x="9" y="24" width="1" height="1" fill="rgba(168,112,114,1.0000)"/>
          <rect x="10" y="24" width="1" height="1" fill="rgba(167,110,113,1.0000)"/>
          <rect x="11" y="24" width="1" height="1" fill="rgba(133,90,96,1.0000)"/>
          <rect x="12" y="24" width="1" height="1" fill="rgba(80,69,78,1.0000)"/>
          <rect x="8" y="25" width="1" height="1" fill="rgba(65,54,63,1.0000)"/>
          <rect x="9" y="25" width="1" height="1" fill="rgba(64,54,63,1.0000)"/>
          <rect x="10" y="25" width="1" height="1" fill="rgba(64,54,63,1.0000)"/>
          <rect x="11" y="25" width="1" height="1" fill="rgba(63,53,62,1.0000)"/>
        </g>
        <g id="spaceocto-3-*{id}-leg3">
          <rect x="18" y="20" width="1" height="1" fill="rgba(230,179,165,1.0000)"/>
          <rect x="19" y="20" width="1" height="1" fill="rgba(209,150,145,1.0000)"/>
          <rect x="17" y="21" width="1" height="1" fill="rgba(187,131,128,1.0000)"/>
          <rect x="18" y="21" width="1" height="1" fill="rgba(231,182,166,1.0000)"/>
          <rect x="19" y="21" width="1" height="1" fill="rgba(205,143,139,1.0000)"/>
          <rect x="20" y="21" width="1" height="1" fill="rgba(74,60,68,1.0000)"/>
          <rect x="15" y="22" width="1" height="1" fill="rgba(76,68,76,1.0000)"/>
          <rect x="16" y="22" width="1" height="1" fill="rgba(169,112,117,1.0000)"/>
          <rect x="17" y="22" width="1" height="1" fill="rgba(210,136,134,1.0000)"/>
          <rect x="18" y="22" width="1" height="1" fill="rgba(224,164,153,1.0000)"/>
          <rect x="19" y="22" width="1" height="1" fill="rgba(201,136,135,1.0000)"/>
          <rect x="20" y="22" width="1" height="1" fill="rgba(64,56,64,1.0000)"/>
          <rect x="15" y="23" width="1" height="1" fill="rgba(78,68,76,1.0000)"/>
          <rect x="16" y="23" width="1" height="1" fill="rgba(132,86,93,1.0000)"/>
          <rect x="17" y="23" width="1" height="1" fill="rgba(169,111,115,1.0000)"/>
          <rect x="18" y="23" width="1" height="1" fill="rgba(210,137,136,1.0000)"/>
          <rect x="19" y="23" width="1" height="1" fill="rgba(211,137,136,1.0000)"/>
          <rect x="20" y="23" width="1" height="1" fill="rgba(193,128,129,1.0000)"/>
          <rect x="21" y="23" width="1" height="1" fill="rgba(76,61,68,1.0000)"/>
          <rect x="16" y="24" width="1" height="1" fill="rgba(66,56,64,1.0000)"/>
          <rect x="17" y="24" width="1" height="1" fill="rgba(123,82,90,1.0000)"/>
          <rect x="18" y="24" width="1" height="1" fill="rgba(167,113,116,1.0000)"/>
          <rect x="19" y="24" width="1" height="1" fill="rgba(167,113,116,1.0000)"/>
          <rect x="20" y="24" width="1" height="1" fill="rgba(165,113,114,1.0000)"/>
          <rect x="21" y="24" width="1" height="1" fill="rgba(77,62,68,1.0000)"/>
          <rect x="17" y="25" width="1" height="1" fill="rgba(64,54,64,1.0000)"/>
          <rect x="18" y="25" width="1" height="1" fill="rgba(64,54,64,1.0000)"/>
          <rect x="19" y="25" width="1" height="1" fill="rgba(64,54,64,1.0000)"/>
          <rect x="20" y="25" width="1" height="1" fill="rgba(62,53,62,1.0000)"/>
        </g>
        <g id="spaceocto-3-*{id}-leg4">
          <rect x="20" y="19" width="1" height="1" fill="rgba(115,86,87,1.0000)"/>
          <rect x="21" y="19" width="1" height="1" fill="rgba(226,170,157,1.0000)"/>
          <rect x="22" y="19" width="1" height="1" fill="rgba(77,63,70,1.0000)"/>
          <rect x="23" y="19" width="1" height="1" fill="rgba(74,60,68,1.0000)"/>
          <rect x="20" y="20" width="1" height="1" fill="rgba(92,68,75,1.0000)"/>
          <rect x="21" y="20" width="1" height="1" fill="rgba(188,128,127,1.0000)"/>
          <rect x="22" y="20" width="1" height="1" fill="rgba(204,151,143,1.0000)"/>
          <rect x="23" y="20" width="1" height="1" fill="rgba(188,128,127,1.0000)"/>
          <rect x="24" y="20" width="1" height="1" fill="rgba(74,60,68,1.0000)"/>
          <rect x="21" y="21" width="1" height="1" fill="rgba(74,60,68,1.0000)"/>
          <rect x="22" y="21" width="1" height="1" fill="rgba(92,68,75,1.0000)"/>
          <rect x="23" y="21" width="1" height="1" fill="rgba(92,68,75,1.0000)"/>
          <rect x="24" y="21" width="1" height="1" fill="rgba(89,77,84,1.0000)"/>
        </g>
      </g>
    </g>
  </g>
</svg>