<svg xmlns="http://www.w3.org/2000/svg" viewBox="0 -6 25 35" shape-rendering="crispEdges">
  <g id="img203-sprite">

    <g id="img203-anchors" visibility="hidden">
      <circle id="img203-anchor-center" cx="12.5" cy="15.5" r="0.01"/>
      <circle id="img203-anchor-label-top" cx="12.5" cy="-2" r="0.01"/>
    </g>

    <g id="img203-*{id}-sprite">
      <animateTransform attributeName="transform" type="translate"
        values="0 0; 0 -4; 0 -1; 0 0"
        keyTimes="0; 0.30; 0.60; 1"
        dur="1.4s" repeatCount="indefinite" />

      <g id="img203-*{id}-leg1">
        <animateTransform attributeName="transform" type="rotate"
          values="0 8 18; -24 8 18; -2 8 18; 0 8 18"
          keyTimes="0; 0.30; 0.60; 1"
          dur="1.4s" repeatCount="indefinite" />
        <!-- (도트 그대로) -->
        <rect x="5" y="18" width="1" height="1" fill="rgb(68,58,66)"/>
        <rect x="6" y="18" width="1" height="1" fill="rgb(66,57,63)"/>
        <rect x="7" y="18" width="1" height="1" fill="rgb(69,57,65)"/>
        <rect x="4" y="19" width="1" height="1" fill="rgb(71,59,66)"/>
        <rect x="5" y="19" width="1" height="1" fill="rgb(68,58,66)"/>
        <rect x="6" y="19" width="1" height="1" fill="rgb(144,83,95)"/>
        <rect x="7" y="19" width="1" height="1" fill="rgb(169,100,110)"/>
        <rect x="8" y="19" width="1" height="1" fill="rgb(131,82,91)"/>
        <rect x="1" y="20" width="1" height="1" fill="rgb(68,58,66)"/>
        <rect x="2" y="20" width="1" height="1" fill="rgb(68,58,66)"/>
        <rect x="3" y="20" width="1" height="1" fill="rgb(68,58,66)"/>
        <rect x="4" y="20" width="1" height="1" fill="rgb(69,59,65)"/>
        <rect x="5" y="20" width="1" height="1" fill="rgb(229,144,144)"/>
        <rect x="6" y="20" width="1" height="1" fill="rgb(225,124,131)"/>
        <rect x="7" y="20" width="1" height="1" fill="rgb(200,108,117)"/>
        <rect x="8" y="20" width="1" height="1" fill="rgb(144,88,96)"/>
        <rect x="0" y="21" width="1" height="1" fill="rgb(69,58,66)"/>
        <rect x="1" y="21" width="1" height="1" fill="rgb(74,61,69)"/>
        <rect x="2" y="21" width="1" height="1" fill="rgb(233,143,143)"/>
        <rect x="3" y="21" width="1" height="1" fill="rgb(235,136,135)"/>
        <rect x="4" y="21" width="1" height="1" fill="rgb(199,111,116)"/>
        <rect x="5" y="21" width="1" height="1" fill="rgb(211,101,112)"/>
        <rect x="6" y="21" width="1" height="1" fill="rgb(203,97,110)"/>
        <rect x="7" y="21" width="1" height="1" fill="rgb(190,102,113)"/>
        <rect x="8" y="21" width="1" height="1" fill="rgb(137,85,93)"/>
        <rect x="0" y="22" width="1" height="1" fill="rgb(68,58,66)"/>
        <rect x="1" y="22" width="1" height="1" fill="rgb(138,96,102)"/>
        <rect x="2" y="22" width="1" height="1" fill="rgb(228,128,130)"/>
        <rect x="3" y="22" width="1" height="1" fill="rgb(235,136,135)"/>
        <rect x="4" y="22" width="1" height="1" fill="rgb(235,136,135)"/>
        <rect x="5" y="22" width="1" height="1" fill="rgb(222,130,130)"/>
        <rect x="6" y="22" width="1" height="1" fill="rgb(76,57,63)"/>
        <rect x="1" y="23" width="1" height="1" fill="rgb(76,60,70)"/>
        <rect x="2" y="23" width="1" height="1" fill="rgb(138,96,102)"/>
        <rect x="3" y="23" width="1" height="1" fill="rgb(138,96,102)"/>
        <rect x="4" y="23" width="1" height="1" fill="rgb(68,58,66)"/>
        <rect x="5" y="23" width="1" height="1" fill="rgb(68,58,66)"/>
        <rect x="2" y="24" width="1" height="1" fill="rgb(69,58,66)"/>
        <rect x="3" y="24" width="1" height="1" fill="rgb(74,61,69)"/>
        <rect x="4" y="24" width="1" height="1" fill="rgb(76,60,70)"/>
      </g>

      <g id="img203-*{id}-leg4">
        <animateTransform attributeName="transform" type="rotate"
          values="0 18 18; 24 18 18; 2 18 18; 0 18 18"
          keyTimes="0; 0.30; 0.60; 1"
          dur="1.4s" repeatCount="indefinite" />
        <!-- (도트 그대로) -->
        <rect x="19" y="18" width="1" height="1" fill="rgb(58,49,58)"/>
        <rect x="20" y="18" width="1" height="1" fill="rgb(58,49,58)"/>
        <rect x="18" y="19" width="1" height="1" fill="rgb(66,55,62)"/>
        <rect x="19" y="19" width="1" height="1" fill="rgb(219,118,127)"/>
        <rect x="20" y="19" width="1" height="1" fill="rgb(232,154,145)"/>
        <rect x="21" y="19" width="1" height="1" fill="rgb(59,48,55)"/>
        <rect x="18" y="20" width="1" height="1" fill="rgb(65,54,60)"/>
        <rect x="19" y="20" width="1" height="1" fill="rgb(224,126,131)"/>
        <rect x="20" y="20" width="1" height="1" fill="rgb(242,160,154)"/>
        <rect x="21" y="20" width="1" height="1" fill="rgb(59,48,55)"/>
        <rect x="22" y="20" width="1" height="1" fill="rgb(59,48,55)"/>
        <rect x="23" y="20" width="1" height="1" fill="rgb(59,48,55)"/>
        <rect x="18" y="21" width="1" height="1" fill="rgb(64,52,60)"/>
        <rect x="19" y="21" width="1" height="1" fill="rgb(135,86,92)"/>
        <rect x="20" y="21" width="1" height="1" fill="rgb(205,119,123)"/>
        <rect x="21" y="21" width="1" height="1" fill="rgb(226,142,140)"/>
        <rect x="22" y="21" width="1" height="1" fill="rgb(189,144,143)"/>
        <rect x="23" y="21" width="1" height="1" fill="rgb(179,114,114)"/>
        <rect x="24" y="21" width="1" height="1" fill="rgb(59,48,55)"/>
        <rect x="18" y="22" width="1" height="1" fill="rgb(100,66,74)"/>
        <rect x="19" y="22" width="1" height="1" fill="rgb(64,52,60)"/>
        <rect x="20" y="22" width="1" height="1" fill="rgb(155,93,102)"/>
        <rect x="21" y="22" width="1" height="1" fill="rgb(179,114,114)"/>
        <rect x="22" y="22" width="1" height="1" fill="rgb(179,114,114)"/>
        <rect x="23" y="22" width="1" height="1" fill="rgb(179,114,114)"/>
        <rect x="24" y="22" width="1" height="1" fill="rgb(59,48,55)"/>
        <rect x="20" y="23" width="1" height="1" fill="rgb(70,59,65)"/>
        <rect x="21" y="23" width="1" height="1" fill="rgb(67,54,64)"/>
        <rect x="22" y="23" width="1" height="1" fill="rgb(59,48,55)"/>
        <rect x="23" y="23" width="1" height="1" fill="rgb(59,48,55)"/>
      </g>

      <g id="img203-*{id}-body">
        <!-- (도트 그대로) -->
        <rect x="7" y="2" width="1" height="1" fill="rgb(58,49,58)"/>
        <rect x="8" y="2" width="1" height="1" fill="rgb(58,49,58)"/>
        <rect x="9" y="2" width="1" height="1" fill="rgb(58,49,58)"/>
        <rect x="10" y="2" width="1" height="1" fill="rgb(58,49,58)"/>
        <rect x="11" y="2" width="1" height="1" fill="rgb(58,49,58)"/>
        <rect x="12" y="2" width="1" height="1" fill="rgb(58,49,58)"/>
        <rect x="13" y="2" width="1" height="1" fill="rgb(58,49,58)"/>
        <rect x="14" y="2" width="1" height="1" fill="rgb(58,49,58)"/>
        <rect x="15" y="2" width="1" height="1" fill="rgb(58,49,58)"/>
        <rect x="16" y="2" width="1" height="1" fill="rgb(58,49,58)"/>
        <rect x="5" y="3" width="1" height="1" fill="rgb(58,49,58)"/>
        <rect x="6" y="3" width="1" height="1" fill="rgb(58,49,58)"/>
        <rect x="7" y="3" width="1" height="1" fill="rgb(208,187,171)"/>
        <rect x="8" y="3" width="1" height="1" fill="rgb(218,198,179)"/>
        <rect x="9" y="3" width="1" height="1" fill="rgb(234,223,206)"/>
        <rect x="10" y="3" width="1" height="1" fill="rgb(231,220,200)"/>
        <rect x="11" y="3" width="1" height="1" fill="rgb(230,219,202)"/>
        <rect x="12" y="3" width="1" height="1" fill="rgb(229,217,200)"/>
        <rect x="13" y="3" width="1" height="1" fill="rgb(231,221,202)"/>
        <rect x="14" y="3" width="1" height="1" fill="rgb(225,213,194)"/>
        <rect x="15" y="3" width="1" height="1" fill="rgb(235,226,210)"/>
        <rect x="16" y="3" width="1" height="1" fill="rgb(202,191,179)"/>
        <rect x="17" y="3" width="1" height="1" fill="rgb(58,49,58)"/>
        <rect x="18" y="3" width="1" height="1" fill="rgb(58,49,58)"/>
        <rect x="4" y="4" width="1" height="1" fill="rgb(58,49,58)"/>
        <rect x="5" y="4" width="1" height="1" fill="rgb(156,139,130)"/>
        <rect x="6" y="4" width="1" height="1" fill="rgb(202,179,157)"/>
        <rect x="7" y="4" width="1" height="1" fill="rgb(219,192,164)"/>
        <rect x="8" y="4" width="1" height="1" fill="rgb(243,231,207)"/>
        <rect x="9" y="4" width="1" height="1" fill="rgb(245,232,205)"/>
        <rect x="10" y="4" width="1" height="1" fill="rgb(244,232,207)"/>
        <rect x="11" y="4" width="1" height="1" fill="rgb(242,229,203)"/>
        <rect x="12" y="4" width="1" height="1" fill="rgb(243,231,207)"/>
        <rect x="13" y="4" width="1" height="1" fill="rgb(242,230,204)"/>
        <rect x="14" y="4" width="1" height="1" fill="rgb(245,231,208)"/>
        <rect x="15" y="4" width="1" height="1" fill="rgb(247,233,209)"/>
        <rect x="16" y="4" width="1" height="1" fill="rgb(248,237,214)"/>
        <rect x="17" y="4" width="1" height="1" fill="rgb(253,250,233)"/>
        <rect x="18" y="4" width="1" height="1" fill="rgb(250,246,227)"/>
        <rect x="19" y="4" width="1" height="1" fill="rgb(58,49,58)"/>
        <rect x="3" y="5" width="1" height="1" fill="rgb(58,49,58)"/>
        <rect x="4" y="5" width="1" height="1" fill="rgb(159,143,133)"/>
        <rect x="5" y="5" width="1" height="1" fill="rgb(197,173,148)"/>
        <rect x="6" y="5" width="1" height="1" fill="rgb(215,186,159)"/>
        <rect x="7" y="5" width="1" height="1" fill="rgb(222,195,165)"/>
        <rect x="8" y="5" width="1" height="1" fill="rgb(234,221,196)"/>
        <rect x="9" y="5" width="1" height="1" fill="rgb(73,55,64)"/>
        <rect x="10" y="5" width="1" height="1" fill="rgb(73,55,64)"/>
        <rect x="11" y="5" width="1" height="1" fill="rgb(73,55,64)"/>
        <rect x="12" y="5" width="1" height="1" fill="rgb(73,55,64)"/>
        <rect x="13" y="5" width="1" height="1" fill="rgb(73,55,64)"/>
        <rect x="14" y="5" width="1" height="1" fill="rgb(73,55,64)"/>
        <rect x="15" y="5" width="1" height="1" fill="rgb(73,55,64)"/>
        <rect x="16" y="5" width="1" height="1" fill="rgb(73,55,64)"/>
        <rect x="17" y="5" width="1" height="1" fill="rgb(73,55,64)"/>
        <rect x="18" y="5" width="1" height="1" fill="rgb(73,55,64)"/>
        <rect x="19" y="5" width="1" height="1" fill="rgb(155,137,126)"/>
        <rect x="20" y="5" width="1" height="1" fill="rgb(58,49,58)"/>
        <rect x="3" y="6" width="1" height="1" fill="rgb(62,51,58)"/>
        <rect x="4" y="6" width="1" height="1" fill="rgb(197,173,154)"/>
        <rect x="5" y="6" width="1" height="1" fill="rgb(217,190,163)"/>
        <rect x="6" y="6" width="1" height="1" fill="rgb(225,200,171)"/>
        <rect x="7" y="6" width="1" height="1" fill="rgb(218,197,171)"/>
        <rect x="8" y="6" width="1" height="1" fill="rgb(73,55,64)"/>
        <rect x="9" y="6" width="1" height="1" fill="rgb(73,55,64)"/>
        <rect x="10" y="6" width="1" height="1" fill="rgb(67,139,175)"/>
        <rect x="11" y="6" width="1" height="1" fill="rgb(67,139,175)"/>
        <rect x="12" y="6" width="1" height="1" fill="rgb(67,139,175)"/>
        <rect x="13" y="6" width="1" height="1" fill="rgb(84,171,215)"/>
        <rect x="14" y="6" width="1" height="1" fill="rgb(84,171,215)"/>
        <rect x="15" y="6" width="1" height="1" fill="rgb(84,171,215)"/>
        <rect x="16" y="6" width="1" height="1" fill="rgb(84,171,215)"/>
        <rect x="17" y="6" width="1" height="1" fill="rgb(84,171,215)"/>
        <rect x="18" y="6" width="1" height="1" fill="rgb(67,139,175)"/>
        <rect x="19" y="6" width="1" height="1" fill="rgb(73,55,64)"/>
        <rect x="20" y="6" width="1" height="1" fill="rgb(58,49,58)"/>
        <rect x="3" y="7" width="1" height="1" fill="rgb(65,53,63)"/>
        <rect x="4" y="7" width="1" height="1" fill="rgb(195,172,150)"/>
        <rect x="5" y="7" width="1" height="1" fill="rgb(229,206,179)"/>
        <rect x="6" y="7" width="1" height="1" fill="rgb(226,209,181)"/>
        <rect x="7" y="7" width="1" height="1" fill="rgb(206,193,170)"/>
        <rect x="8" y="7" width="1" height="1" fill="rgb(73,55,64)"/>
        <rect x="9" y="7" width="1" height="1" fill="rgb(67,139,175)"/>
        <rect x="10" y="7" width="1" height="1" fill="rgb(67,139,175)"/>
        <rect x="11" y="7" width="1" height="1" fill="rgb(84,171,215)"/>
        <rect x="12" y="7" width="1" height="1" fill="rgb(84,171,215)"/>
        <rect x="13" y="7" width="1" height="1" fill="rgb(84,171,215)"/>
        <rect x="14" y="7" width="1" height="1" fill="rgb(84,171,215)"/>
        <rect x="15" y="7" width="1" height="1" fill="rgb(79,196,233)"/>
        <rect x="16" y="7" width="1" height="1" fill="rgb(79,196,233)"/>
        <rect x="17" y="7" width="1" height="1" fill="rgb(79,196,233)"/>
        <rect x="18" y="7" width="1" height="1" fill="rgb(79,196,233)"/>
        <rect x="19" y="7" width="1" height="1" fill="rgb(67,139,175)"/>
        <rect x="20" y="7" width="1" height="1" fill="rgb(58,49,58)"/>
        <rect x="21" y="7" width="1" height="1" fill="rgb(58,49,58)"/>
        <rect x="2" y="8" width="1" height="1" fill="rgb(58,49,58)"/>
        <rect x="3" y="8" width="1" height="1" fill="rgb(55,43,49)"/>
        <rect x="4" y="8" width="1" height="1" fill="rgb(206,182,170)"/>
        <rect x="5" y="8" width="1" height="1" fill="rgb(217,198,178)"/>
        <rect x="6" y="8" width="1" height="1" fill="rgb(155,139,129)"/>
        <rect x="7" y="8" width="1" height="1" fill="rgb(84,64,71)"/>
        <rect x="8" y="8" width="1" height="1" fill="rgb(67,139,175)"/>
        <rect x="9" y="8" width="1" height="1" fill="rgb(67,139,175)"/>
        <rect x="10" y="8" width="1" height="1" fill="rgb(84,171,215)"/>
        <rect x="11" y="8" width="1" height="1" fill="rgb(84,171,215)"/>
        <rect x="12" y="8" width="1" height="1" fill="rgb(79,196,233)"/>
        <rect x="13" y="8" width="1" height="1" fill="rgb(79,196,233)"/>
        <rect x="14" y="8" width="1" height="1" fill="rgb(79,196,233)"/>
        <rect x="15" y="8" width="1" height="1" fill="rgb(79,196,233)"/>
        <rect x="16" y="8" width="1" height="1" fill="rgb(253,250,233)"/>
        <rect x="17" y="8" width="1" height="1" fill="rgb(253,250,233)"/>
        <rect x="18" y="8" width="1" height="1" fill="rgb(253,250,233)"/>
        <rect x="19" y="8" width="1" height="1" fill="rgb(67,139,175)"/>
        <rect x="20" y="8" width="1" height="1" fill="rgb(73,53,61)"/>
        <rect x="21" y="8" width="1" height="1" fill="rgb(58,49,58)"/>
        <rect x="2" y="9" width="1" height="1" fill="rgb(58,49,58)"/>
        <rect x="3" y="9" width="1" height="1" fill="rgb(153,138,130)"/>
        <rect x="4" y="9" width="1" height="1" fill="rgb(91,76,80)"/>
        <rect x="5" y="9" width="1" height="1" fill="rgb(118,107,106)"/>
        <rect x="6" y="9" width="1" height="1" fill="rgb(106,95,95)"/>
        <rect x="7" y="9" width="1" height="1" fill="rgb(80,60,67)"/>
        <rect x="8" y="9" width="1" height="1" fill="rgb(67,139,175)"/>
        <rect x="9" y="9" width="1" height="1" fill="rgb(84,171,215)"/>
        <rect x="10" y="9" width="1" height="1" fill="rgb(79,196,233)"/>
        <rect x="11" y="9" width="1" height="1" fill="rgb(79,196,233)"/>
        <rect x="12" y="9" width="1" height="1" fill="rgb(79,196,233)"/>
        <rect x="13" y="9" width="1" height="1" fill="rgb(79,196,233)"/>
        <rect x="14" y="9" width="1" height="1" fill="rgb(79,196,233)"/>
        <rect x="15" y="9" width="1" height="1" fill="rgb(79,196,233)"/>
        <rect x="16" y="9" width="1" height="1" fill="rgb(79,196,233)"/>
        <rect x="17" y="9" width="1" height="1" fill="rgb(79,196,233)"/>
        <rect x="18" y="9" width="1" height="1" fill="rgb(79,196,233)"/>
        <rect x="19" y="9" width="1" height="1" fill="rgb(79,196,233)"/>
        <rect x="20" y="9" width="1" height="1" fill="rgb(67,139,175)"/>
        <rect x="21" y="9" width="1" height="1" fill="rgb(58,49,58)"/>
        <rect x="2" y="10" width="1" height="1" fill="rgb(69,58,66)"/>
        <rect x="3" y="10" width="1" height="1" fill="rgb(85,82,93)"/>
        <rect x="4" y="10" width="1" height="1" fill="rgb(197,172,154)"/>
        <rect x="5" y="10" width="1" height="1" fill="rgb(120,110,112)"/>
        <rect x="6" y="10" width="1" height="1" fill="rgb(77,71,79)"/>
        <rect x="7" y="10" width="1" height="1" fill="rgb(67,139,175)"/>
        <rect x="8" y="10" width="1" height="1" fill="rgb(84,171,215)"/>
        <rect x="9" y="10" width="1" height="1" fill="rgb(84,171,215)"/>
        <rect x="10" y="10" width="1" height="1" fill="rgb(79,196,233)"/>
        <rect x="11" y="10" width="1" height="1" fill="rgb(79,196,233)"/>
        <rect x="12" y="10" width="1" height="1" fill="rgb(79,196,233)"/>
        <rect x="13" y="10" width="1" height="1" fill="rgb(79,196,233)"/>
        <rect x="14" y="10" width="1" height="1" fill="rgb(79,196,233)"/>
        <rect x="15" y="10" width="1" height="1" fill="rgb(79,196,233)"/>
        <rect x="16" y="10" width="1" height="1" fill="rgb(79,196,233)"/>
        <rect x="17" y="10" width="1" height="1" fill="rgb(79,196,233)"/>
        <rect x="18" y="10" width="1" height="1" fill="rgb(79,196,233)"/>
        <rect x="19" y="10" width="1" height="1" fill="rgb(79,196,233)"/>
        <rect x="20" y="10" width="1" height="1" fill="rgb(67,139,175)"/>
        <rect x="21" y="10" width="1" height="1" fill="rgb(58,49,58)"/>
        <rect x="2" y="11" width="1" height="1" fill="rgb(63,53,60)"/>
        <rect x="3" y="11" width="1" height="1" fill="rgb(85,83,92)"/>
        <rect x="4" y="11" width="1" height="1" fill="rgb(193,169,149)"/>
        <rect x="5" y="11" width="1" height="1" fill="rgb(120,109,112)"/>
        <rect x="6" y="11" width="1" height="1" fill="rgb(80,73,83)"/>
        <rect x="7" y="11" width="1" height="1" fill="rgb(67,139,175)"/>
        <rect x="8" y="11" width="1" height="1" fill="rgb(84,171,215)"/>
        <rect x="9" y="11" width="1" height="1" fill="rgb(79,196,233)"/>
        <rect x="10" y="11" width="1" height="1" fill="rgb(100,82,85)"/>
        <rect x="11" y="11" width="1" height="1" fill="rgb(58,47,55)"/>
        <rect x="12" y="11" width="1" height="1" fill="rgb(79,196,233)"/>
        <rect x="13" y="11" width="1" height="1" fill="rgb(79,196,233)"/>
        <rect x="14" y="11" width="1" height="1" fill="rgb(79,196,233)"/>
        <rect x="15" y="11" width="1" height="1" fill="rgb(79,196,233)"/>
        <rect x="16" y="11" width="1" height="1" fill="rgb(79,196,233)"/>
        <rect x="17" y="11" width="1" height="1" fill="rgb(100,82,85)"/>
        <rect x="18" y="11" width="1" height="1" fill="rgb(58,47,55)"/>
        <rect x="19" y="11" width="1" height="1" fill="rgb(84,171,215)"/>
        <rect x="20" y="11" width="1" height="1" fill="rgb(67,139,175)"/>
        <rect x="21" y="11" width="1" height="1" fill="rgb(58,49,58)"/>
        <rect x="2" y="12" width="1" height="1" fill="rgb(66,55,62)"/>
        <rect x="3" y="12" width="1" height="1" fill="rgb(111,103,109)"/>
        <rect x="4" y="12" width="1" height="1" fill="rgb(179,158,143)"/>
        <rect x="5" y="12" width="1" height="1" fill="rgb(104,96,101)"/>
        <rect x="6" y="12" width="1" height="1" fill="rgb(81,75,83)"/>
        <rect x="7" y="12" width="1" height="1" fill="rgb(67,139,175)"/>
        <rect x="8" y="12" width="1" height="1" fill="rgb(84,171,215)"/>
        <rect x="9" y="12" width="1" height="1" fill="rgb(79,196,233)"/>
        <rect x="10" y="12" width="1" height="1" fill="rgb(66,54,62)"/>
        <rect x="11" y="12" width="1" height="1" fill="rgb(49,36,42)"/>
        <rect x="12" y="12" width="1" height="1" fill="rgb(79,196,233)"/>
        <rect x="13" y="12" width="1" height="1" fill="rgb(79,196,233)"/>
        <rect x="14" y="12" width="1" height="1" fill="rgb(79,196,233)"/>
        <rect x="15" y="12" width="1" height="1" fill="rgb(79,196,233)"/>
        <rect x="16" y="12" width="1" height="1" fill="rgb(79,196,233)"/>
        <rect x="17" y="12" width="1" height="1" fill="rgb(58,47,55)"/>
        <rect x="18" y="12" width="1" height="1" fill="rgb(49,36,42)"/>
        <rect x="19" y="12" width="1" height="1" fill="rgb(84,171,215)"/>
        <rect x="20" y="12" width="1" height="1" fill="rgb(67,139,175)"/>
        <rect x="21" y="12" width="1" height="1" fill="rgb(58,49,58)"/>
        <rect x="2" y="13" width="1" height="1" fill="rgb(58,49,58)"/>
        <rect x="3" y="13" width="1" height="1" fill="rgb(117,104,103)"/>
        <rect x="4" y="13" width="1" height="1" fill="rgb(129,115,110)"/>
        <rect x="5" y="13" width="1" height="1" fill="rgb(106,97,101)"/>
        <rect x="6" y="13" width="1" height="1" fill="rgb(84,77,85)"/>
        <rect x="7" y="13" width="1" height="1" fill="rgb(67,139,175)"/>
        <rect x="8" y="13" width="1" height="1" fill="rgb(67,139,175)"/>
        <rect x="9" y="13" width="1" height="1" fill="rgb(84,171,215)"/>
        <rect x="10" y="13" width="1" height="1" fill="rgb(49,36,42)"/>
        <rect x="11" y="13" width="1" height="1" fill="rgb(49,36,42)"/>
        <rect x="12" y="13" width="1" height="1" fill="rgb(79,196,233)"/>
        <rect x="13" y="13" width="1" height="1" fill="rgb(79,196,233)"/>
        <rect x="14" y="13" width="1" height="1" fill="rgb(79,196,233)"/>
        <rect x="15" y="13" width="1" height="1" fill="rgb(79,196,233)"/>
        <rect x="16" y="13" width="1" height="1" fill="rgb(79,196,233)"/>
        <rect x="17" y="13" width="1" height="1" fill="rgb(49,36,42)"/>
        <rect x="18" y="13" width="1" height="1" fill="rgb(49,36,42)"/>
        <rect x="19" y="13" width="1" height="1" fill="rgb(84,171,215)"/>
        <rect x="20" y="13" width="1" height="1" fill="rgb(67,139,175)"/>
        <rect x="21" y="13" width="1" height="1" fill="rgb(58,49,58)"/>
        <rect x="3" y="14" width="1" height="1" fill="rgb(79,66,72)"/>
        <rect x="4" y="14" width="1" height="1" fill="rgb(82,77,90)"/>
        <rect x="5" y="14" width="1" height="1" fill="rgb(144,130,126)"/>
        <rect x="6" y="14" width="1" height="1" fill="rgb(115,98,97)"/>
        <rect x="7" y="14" width="1" height="1" fill="rgb(84,68,75)"/>
        <rect x="8" y="14" width="1" height="1" fill="rgb(67,139,175)"/>
        <rect x="9" y="14" width="1" height="1" fill="rgb(84,171,215)"/>
        <rect x="10" y="14" width="1" height="1" fill="rgb(84,171,215)"/>
        <rect x="11" y="14" width="1" height="1" fill="rgb(84,171,215)"/>
        <rect x="12" y="14" width="1" height="1" fill="rgb(84,171,215)"/>
        <rect x="13" y="14" width="1" height="1" fill="rgb(84,171,215)"/>
        <rect x="14" y="14" width="1" height="1" fill="rgb(79,196,233)"/>
        <rect x="15" y="14" width="1" height="1" fill="rgb(79,196,233)"/>
        <rect x="16" y="14" width="1" height="1" fill="rgb(79,196,233)"/>
        <rect x="17" y="14" width="1" height="1" fill="rgb(84,171,215)"/>
        <rect x="18" y="14" width="1" height="1" fill="rgb(84,171,215)"/>
        <rect x="19" y="14" width="1" height="1" fill="rgb(67,139,175)"/>
        <rect x="20" y="14" width="1" height="1" fill="rgb(73,56,62)"/>
        <rect x="21" y="14" width="1" height="1" fill="rgb(58,49,58)"/>
        <rect x="4" y="15" width="1" height="1" fill="rgb(74,64,69)"/>
        <rect x="5" y="15" width="1" height="1" fill="rgb(114,100,98)"/>
        <rect x="6" y="15" width="1" height="1" fill="rgb(159,136,124)"/>
        <rect x="7" y="15" width="1" height="1" fill="rgb(190,162,141)"/>
        <rect x="8" y="15" width="1" height="1" fill="rgb(70,61,66)"/>
        <rect x="9" y="15" width="1" height="1" fill="rgb(67,139,175)"/>
        <rect x="10" y="15" width="1" height="1" fill="rgb(67,139,175)"/>
        <rect x="11" y="15" width="1" height="1" fill="rgb(67,139,175)"/>
        <rect x="12" y="15" width="1" height="1" fill="rgb(67,139,175)"/>
        <rect x="13" y="15" width="1" height="1" fill="rgb(84,171,215)"/>
        <rect x="14" y="15" width="1" height="1" fill="rgb(84,171,215)"/>
        <rect x="15" y="15" width="1" height="1" fill="rgb(84,171,215)"/>
        <rect x="16" y="15" width="1" height="1" fill="rgb(84,171,215)"/>
        <rect x="17" y="15" width="1" height="1" fill="rgb(67,139,175)"/>
        <rect x="18" y="15" width="1" height="1" fill="rgb(67,139,175)"/>
        <rect x="19" y="15" width="1" height="1" fill="rgb(65,52,60)"/>
        <rect x="20" y="15" width="1" height="1" fill="rgb(55,43,49)"/>
        <rect x="5" y="16" width="1" height="1" fill="rgb(69,57,65)"/>
        <rect x="6" y="16" width="1" height="1" fill="rgb(95,82,83)"/>
        <rect x="7" y="16" width="1" height="1" fill="rgb(140,125,121)"/>
        <rect x="8" y="16" width="1" height="1" fill="rgb(134,116,110)"/>
        <rect x="9" y="16" width="1" height="1" fill="rgb(58,46,53)"/>
        <rect x="10" y="16" width="1" height="1" fill="rgb(62,52,57)"/>
        <rect x="11" y="16" width="1" height="1" fill="rgb(62,51,59)"/>
        <rect x="12" y="16" width="1" height="1" fill="rgb(64,53,60)"/>
        <rect x="13" y="16" width="1" height="1" fill="rgb(66,55,61)"/>
        <rect x="14" y="16" width="1" height="1" fill="rgb(63,53,59)"/>
        <rect x="15" y="16" width="1" height="1" fill="rgb(64,53,60)"/>
        <rect x="16" y="16" width="1" height="1" fill="rgb(64,53,61)"/>
        <rect x="17" y="16" width="1" height="1" fill="rgb(68,55,63)"/>
        <rect x="18" y="16" width="1" height="1" fill="rgb(65,54,61)"/>
        <rect x="19" y="16" width="1" height="1" fill="rgb(58,49,58)"/>
        <rect x="6" y="17" width="1" height="1" fill="rgb(68,58,66)"/>
        <rect x="7" y="17" width="1" height="1" fill="rgb(72,61,68)"/>
        <rect x="8" y="17" width="1" height="1" fill="rgb(73,61,67)"/>
        <rect x="9" y="17" width="1" height="1" fill="rgb(129,112,109)"/>
        <rect x="10" y="17" width="1" height="1" fill="rgb(152,133,124)"/>
        <rect x="11" y="17" width="1" height="1" fill="rgb(153,134,124)"/>
        <rect x="12" y="17" width="1" height="1" fill="rgb(155,137,126)"/>
        <rect x="13" y="17" width="1" height="1" fill="rgb(158,139,128)"/>
        <rect x="14" y="17" width="1" height="1" fill="rgb(155,137,128)"/>
        <rect x="15" y="17" width="1" height="1" fill="rgb(166,146,136)"/>
        <rect x="16" y="17" width="1" height="1" fill="rgb(157,136,128)"/>
        <rect x="17" y="17" width="1" height="1" fill="rgb(163,142,132)"/>
        <rect x="18" y="17" width="1" height="1" fill="rgb(140,123,115)"/>
        <rect x="19" y="17" width="1" height="1" fill="rgb(58,49,58)"/>
        <rect x="8" y="18" width="1" height="1" fill="rgb(137,121,116)"/>
        <rect x="9" y="18" width="1" height="1" fill="rgb(77,64,67)"/>
        <rect x="10" y="18" width="1" height="1" fill="rgb(83,70,71)"/>
        <rect x="11" y="18" width="1" height="1" fill="rgb(82,68,72)"/>
        <rect x="12" y="18" width="1" height="1" fill="rgb(71,59,64)"/>
        <rect x="13" y="18" width="1" height="1" fill="rgb(68,55,61)"/>
        <rect x="14" y="18" width="1" height="1" fill="rgb(64,51,58)"/>
        <rect x="15" y="18" width="1" height="1" fill="rgb(61,51,57)"/>
        <rect x="16" y="18" width="1" height="1" fill="rgb(64,52,60)"/>
        <rect x="17" y="18" width="1" height="1" fill="rgb(59,48,55)"/>
        <rect x="18" y="18" width="1" height="1" fill="rgb(59,48,55)"/>
      </g>

      <g id="img203-*{id}-leg2">
        <animateTransform attributeName="transform" type="rotate"
          values="0 11 22; -12 11 22; -1.2 11 22; 0 11 22"
          keyTimes="0; 0.30; 0.60; 1"
          dur="1.4s" repeatCount="indefinite" />
        <!-- (도트 그대로) -->
        <rect x="7" y="22" width="1" height="1" fill="rgb(77,58,67)"/>
        <rect x="8" y="22" width="1" height="1" fill="rgb(194,113,120)"/>
        <rect x="6" y="23" width="1" height="1" fill="rgb(72,58,64)"/>
        <rect x="7" y="23" width="1" height="1" fill="rgb(66,55,64)"/>
        <rect x="8" y="23" width="1" height="1" fill="rgb(147,84,98)"/>
        <rect x="9" y="23" width="1" height="1" fill="rgb(239,161,150)"/>
        <rect x="10" y="23" width="1" height="1" fill="rgb(239,174,156)"/>
        <rect x="6" y="24" width="1" height="1" fill="rgb(66,55,64)"/>
        <rect x="7" y="24" width="1" height="1" fill="rgb(66,55,64)"/>
        <rect x="8" y="24" width="1" height="1" fill="rgb(217,122,125)"/>
        <rect x="9" y="24" width="1" height="1" fill="rgb(227,132,135)"/>
        <rect x="10" y="24" width="1" height="1" fill="rgb(243,173,157)"/>
        <rect x="11" y="24" width="1" height="1" fill="rgb(174,102,111)"/>
        <rect x="5" y="25" width="1" height="1" fill="rgb(66,55,64)"/>
        <rect x="6" y="25" width="1" height="1" fill="rgb(66,55,64)"/>
        <rect x="7" y="25" width="1" height="1" fill="rgb(217,122,125)"/>
        <rect x="8" y="25" width="1" height="1" fill="rgb(217,122,125)"/>
        <rect x="9" y="25" width="1" height="1" fill="rgb(225,130,132)"/>
        <rect x="10" y="25" width="1" height="1" fill="rgb(211,103,114)"/>
        <rect x="11" y="25" width="1" height="1" fill="rgb(66,55,64)"/>
        <rect x="4" y="26" width="1" height="1" fill="rgb(66,55,64)"/>
        <rect x="5" y="26" width="1" height="1" fill="rgb(179,114,114)"/>
        <rect x="6" y="26" width="1" height="1" fill="rgb(217,122,125)"/>
        <rect x="7" y="26" width="1" height="1" fill="rgb(217,122,125)"/>
        <rect x="8" y="26" width="1" height="1" fill="rgb(211,103,114)"/>
        <rect x="9" y="26" width="1" height="1" fill="rgb(211,103,114)"/>
        <rect x="10" y="26" width="1" height="1" fill="rgb(76,62,71)"/>
        <rect x="11" y="26" width="1" height="1" fill="rgb(73,62,71)"/>
        <rect x="4" y="27" width="1" height="1" fill="rgb(66,55,64)"/>
        <rect x="5" y="27" width="1" height="1" fill="rgb(179,114,114)"/>
        <rect x="6" y="27" width="1" height="1" fill="rgb(179,114,114)"/>
        <rect x="7" y="27" width="1" height="1" fill="rgb(179,114,114)"/>
        <rect x="8" y="27" width="1" height="1" fill="rgb(66,55,64)"/>
        <rect x="9" y="27" width="1" height="1" fill="rgb(66,55,64)"/>
        <rect x="10" y="27" width="1" height="1" fill="rgb(76,60,70)"/>
        <rect x="5" y="28" width="1" height="1" fill="rgb(66,55,64)"/>
        <rect x="6" y="28" width="1" height="1" fill="rgb(66,55,64)"/>
        <rect x="7" y="28" width="1" height="1" fill="rgb(76,60,70)"/>
        <rect x="8" y="28" width="1" height="1" fill="rgb(76,60,70)"/>
      </g>

      <g id="img203-*{id}-leg3">
        <animateTransform attributeName="transform" type="rotate"
          values="0 14 23; 12 14 23; 1.2 14 23; 0 14 23"
          keyTimes="0; 0.30; 0.60; 1"
          dur="1.4s" repeatCount="indefinite" />
        <!-- (도트 그대로) -->
        <rect x="18" y="23" width="1" height="1" fill="rgb(211,115,124)"/>
        <rect x="19" y="23" width="1" height="1" fill="rgb(68,54,63)"/>
        <rect x="14" y="24" width="1" height="1" fill="rgb(66,46,53)"/>
        <rect x="15" y="24" width="1" height="1" fill="rgb(220,126,130)"/>
        <rect x="16" y="24" width="1" height="1" fill="rgb(223,141,134)"/>
        <rect x="17" y="24" width="1" height="1" fill="rgb(222,125,129)"/>
        <rect x="18" y="24" width="1" height="1" fill="rgb(72,57,65)"/>
        <rect x="19" y="24" width="1" height="1" fill="rgb(63,55,62)"/>
        <rect x="14" y="25" width="1" height="1" fill="rgb(63,43,50)"/>
        <rect x="15" y="25" width="1" height="1" fill="rgb(210,116,121)"/>
        <rect x="16" y="25" width="1" height="1" fill="rgb(229,140,138)"/>
        <rect x="17" y="25" width="1" height="1" fill="rgb(211,103,114)"/>
        <rect x="18" y="25" width="1" height="1" fill="rgb(179,114,114)"/>
        <rect x="19" y="25" width="1" height="1" fill="rgb(63,55,62)"/>
        <rect x="14" y="26" width="1" height="1" fill="rgb(68,55,63)"/>
        <rect x="15" y="26" width="1" height="1" fill="rgb(96,68,77)"/>
        <rect x="16" y="26" width="1" height="1" fill="rgb(220,124,128)"/>
        <rect x="17" y="26" width="1" height="1" fill="rgb(223,125,128)"/>
        <rect x="18" y="26" width="1" height="1" fill="rgb(221,127,128)"/>
        <rect x="19" y="26" width="1" height="1" fill="rgb(179,114,114)"/>
        <rect x="20" y="26" width="1" height="1" fill="rgb(63,55,62)"/>
        <rect x="15" y="27" width="1" height="1" fill="rgb(66,51,58)"/>
        <rect x="16" y="27" width="1" height="1" fill="rgb(121,81,86)"/>
        <rect x="17" y="27" width="1" height="1" fill="rgb(130,86,94)"/>
        <rect x="18" y="27" width="1" height="1" fill="rgb(128,86,92)"/>
        <rect x="19" y="27" width="1" height="1" fill="rgb(179,114,114)"/>
        <rect x="20" y="27" width="1" height="1" fill="rgb(63,55,62)"/>
        <rect x="16" y="28" width="1" height="1" fill="rgb(63,55,62)"/>
        <rect x="17" y="28" width="1" height="1" fill="rgb(63,55,62)"/>
        <rect x="18" y="28" width="1" height="1" fill="rgb(63,55,62)"/>
        <rect x="19" y="28" width="1" height="1" fill="rgb(63,55,62)"/>
      </g>

      <g id="img203-*{id}-head">
        <!-- (도트 그대로) -->
        <rect x="9" y="19" width="1" height="1" fill="rgb(211,183,162)"/>
        <rect x="10" y="19" width="1" height="1" fill="rgb(230,200,177)"/>
        <rect x="11" y="19" width="1" height="1" fill="rgb(227,198,172)"/>
        <rect x="12" y="19" width="1" height="1" fill="rgb(229,200,172)"/>
        <rect x="13" y="19" width="1" height="1" fill="rgb(217,196,171)"/>
        <rect x="14" y="19" width="1" height="1" fill="rgb(143,127,120)"/>
        <rect x="15" y="19" width="1" height="1" fill="rgb(226,198,169)"/>
        <rect x="16" y="19" width="1" height="1" fill="rgb(233,205,178)"/>
        <rect x="17" y="19" width="1" height="1" fill="rgb(229,199,169)"/>
        <rect x="9" y="20" width="1" height="1" fill="rgb(217,185,159)"/>
        <rect x="10" y="20" width="1" height="1" fill="rgb(233,219,196)"/>
        <rect x="11" y="20" width="1" height="1" fill="rgb(234,219,196)"/>
        <rect x="12" y="20" width="1" height="1" fill="rgb(235,220,197)"/>
        <rect x="13" y="20" width="1" height="1" fill="rgb(216,205,189)"/>
        <rect x="14" y="20" width="1" height="1" fill="rgb(107,96,93)"/>
        <rect x="15" y="20" width="1" height="1" fill="rgb(237,223,199)"/>
        <rect x="16" y="20" width="1" height="1" fill="rgb(236,224,200)"/>
        <rect x="17" y="20" width="1" height="1" fill="rgb(230,216,193)"/>
        <rect x="9" y="21" width="1" height="1" fill="rgb(215,182,156)"/>
        <rect x="10" y="21" width="1" height="1" fill="rgb(242,229,206)"/>
        <rect x="11" y="21" width="1" height="1" fill="rgb(244,231,209)"/>
        <rect x="12" y="21" width="1" height="1" fill="rgb(241,227,204)"/>
        <rect x="13" y="21" width="1" height="1" fill="rgb(219,210,195)"/>
        <rect x="14" y="21" width="1" height="1" fill="rgb(99,89,87)"/>
        <rect x="15" y="21" width="1" height="1" fill="rgb(244,233,210)"/>
        <rect x="16" y="21" width="1" height="1" fill="rgb(239,224,201)"/>
        <rect x="17" y="21" width="1" height="1" fill="rgb(221,197,171)"/>
        <rect x="9" y="22" width="1" height="1" fill="rgb(223,180,158)"/>
        <rect x="10" y="22" width="1" height="1" fill="rgb(238,214,191)"/>
        <rect x="11" y="22" width="1" height="1" fill="rgb(229,211,188)"/>
        <rect x="12" y="22" width="1" height="1" fill="rgb(221,206,185)"/>
        <rect x="13" y="22" width="1" height="1" fill="rgb(198,188,177)"/>
        <rect x="14" y="22" width="1" height="1" fill="rgb(130,115,108)"/>
        <rect x="15" y="22" width="1" height="1" fill="rgb(234,217,194)"/>
        <rect x="16" y="22" width="1" height="1" fill="rgb(230,211,187)"/>
        <rect x="17" y="22" width="1" height="1" fill="rgb(210,178,154)"/>
        <rect x="11" y="23" width="1" height="1" fill="rgb(190,156,140)"/>
        <rect x="12" y="23" width="1" height="1" fill="rgb(157,135,126)"/>
        <rect x="13" y="23" width="1" height="1" fill="rgb(145,129,124)"/>
        <rect x="14" y="23" width="1" height="1" fill="rgb(202,176,159)"/>
        <rect x="15" y="23" width="1" height="1" fill="rgb(194,162,141)"/>
        <rect x="16" y="23" width="1" height="1" fill="rgb(218,184,160)"/>
        <rect x="17" y="23" width="1" height="1" fill="rgb(209,176,151)"/>
        <rect x="12" y="24" width="1" height="1" fill="rgb(66,55,64)"/>
        <rect x="13" y="24" width="1" height="1" fill="rgb(66,55,64)"/>
      </g>
    </g>
  </g>
</svg>
