<svg viewBox="0 0 16 16" aria-hidden="true" fill="currentColor"> <path d="M8 0C3.58 0 0 3.73 0 8.33c0 3.68 2.29 6.79 5.47 7.89.4.08.55-.18.55-.4 0-.2-.01-.86-.01-1.56-2.01.45-2.53-.5-2.69-.96-.09-.23-.48-.96-.82-1.15-.28-.15-.68-.52-.01-.53.63-.01 1.08.6 1.23.84.72 1.22 1.87.88 2.33.67.07-.54.28-.89.51-1.09-1.78-.21-3.64-.92-3.64-4.09 0-.9.31-1.64.82-2.22-.08-.2-.36-1.01.08-2.1 0 0 .67-.22 2.2.85a7.2 7.2 0 0 1 2-.28c.68 0 1.36.09 2 .28 1.53-1.07 2.2-.85 2.2-.85.44 1.09.16 1.9.08 2.1.51.58.82 1.32.82 2.22 0 3.18-1.87 3.88-3.65 4.09.29.26.54.77.54 1.56 0 1.12-.01 2.03-.01 2.31 0 .22.15.48.55.4C13.71 15.13 16 12.02 16 8.33 16 3.73 12.42 0 8 0Z" /> </svg>