<svg viewBox="0 0 533.5 544.3" aria-hidden="true">
      <path
        fill="#4285F4"
        d="M533.5 278.4c0-18.5-1.7-36.2-4.9-53.4H272v101h146.9c-6.3 34-25.6 62.7-54.5 82v68h88.1c51.6-47.5 80-117.6 80-197.6z"
      />
      <path
        fill="#34A853"
        d="M272 544.3c73.6 0 135.4-24.3 180.5-66.1l-88.1-68c-24.5 16.5-56 26.3-92.4 26.3-71 0-131-47.9-152.4-112.3h-91v70.7C72.3 486.2 167 544.3 272 544.3z"
      />
      <path
        fill="#FBBC05"
        d="M119.6 323.9c-10.8-32.4-10.8-67.3 0-99.7v-70.7h-91c-37.9 75.8-37.9 165.3 0 241.1l91-70.7z"
      />
      <path
        fill="#EA4335"
        d="M272 106.1c39.9-.6 78.3 14 107.5 40.7l80.2-80.2C407.3 23.5 344.3-.1 272 0 167 0 72.3 57.9 28.6 145.5l91 70.7C141 154 201 106.1 272 106.1z"
      />
    </svg>