<svg id="stage" xmlns="http://www.w3.org/2000/svg" viewBox="0 -4 50 54" shape-rendering="crispEdges">
  <g id="shrimpwich-2-*{id}">
    <g id="shrimpwich-2-*{id}-anchors" visibility="hidden">
      <circle id="shrimpwich-2-*{id}-anchor-center" cx="25" cy="25" r="0.01"/>
      <circle id="shrimpwich-2-*{id}-anchor-label-top" cx="25" cy="-1" r="0.01"/>
    </g>
    <style>
@keyframes shrimpwich-2-*{id}-bob {
  0%   { transform: translateY(0); }
  12%  { transform: translateY(0); }
  40%  { transform: translateY(-4.0px); }
  80%  { transform: translateY(-1px); }
  100% { transform: translateY(0); }
}
@keyframes shrimpwich-2-*{id}-tilt-must {
  0%,12% { transform: rotate(0deg); }
  40%    { transform: rotate(-10deg); }
  80%    { transform: rotate(-2deg); }
  100%   { transform: rotate(0deg); }
}
@keyframes shrimpwich-2-*{id}-tilt-head {
  0%,12% { transform: rotate(0deg); }
  40%    { transform: rotate(-5deg); }
  80%    { transform: rotate(-1deg); }
  100%   { transform: rotate(0deg); }
}
@keyframes shrimpwich-2-*{id}-tilt-body2 {
  0%,12% { transform: rotate(0deg); }
  40%    { transform: rotate(5deg); }
  80%    { transform: rotate(1deg); }
  100%   { transform: rotate(0deg); }
}
@keyframes shrimpwich-2-*{id}-tilt-tail {
  0%,12% { transform: rotate(-60deg); }
  40%    { transform: rotate(-35deg); }
  80%    { transform: rotate(-50deg); }
  100%   { transform: rotate(-60deg); }
}

#shrimpwich-2-*{id}-sprite,
#shrimpwich-2-*{id}-must,
#shrimpwich-2-*{id}-head,
#shrimpwich-2-*{id}-body1,
#shrimpwich-2-*{id}-body2,
#shrimpwich-2-*{id}-tail {
  transform-box: fill-box;
  animation-duration: 1.4s;
  animation-iteration-count: infinite;
  animation-timing-function: ease-in-out;
}

#shrimpwich-2-*{id}-sprite { animation-name: shrimpwich-2-*{id}-bob; transform-origin: center; }

#shrimpwich-2-*{id}-must { transform-origin: 100% 100%; }
#shrimpwich-2-*{id}-head { transform-origin: 100% 100%; }
#shrimpwich-2-*{id}-body2 { transform-origin: 0% 0%; }
#shrimpwich-2-*{id}-tail { transform-origin: 100% 0%; }

#shrimpwich-2-*{id}-must { animation-name: shrimpwich-2-*{id}-tilt-must; }
#shrimpwich-2-*{id}-head { animation-name: shrimpwich-2-*{id}-tilt-head; }
#shrimpwich-2-*{id}-body2 { animation-name: shrimpwich-2-*{id}-tilt-body2; }
#shrimpwich-2-*{id}-tail { animation-name: shrimpwich-2-*{id}-tilt-tail; }
    </style>
    <g id="shrimpwich-2-*{id}-wrapper" transform="translate(12, 0)">
      <g id="shrimpwich-2-*{id}-sprite">
        <g id="shrimpwich-2-*{id}-sprite" data-kind="sprite">
          <g id="shrimpwich-2-*{id}-must">
            <rect x="8" y="5" width="1" height="1" fill="rgb(228,151,135)"/>
            <rect x="9" y="5" width="1" height="1" fill="rgb(228,151,135)"/>
            <rect x="6" y="6" width="1" height="1" fill="rgb(224,126,101)"/>
            <rect x="7" y="6" width="1" height="1" fill="rgb(224,126,101)"/>
            <rect x="5" y="7" width="1" height="1" fill="rgb(224,126,101)"/>
            <rect x="5" y="8" width="1" height="1" fill="rgb(227,107,82)"/>
            <rect x="4" y="9" width="1" height="1" fill="rgb(227,107,82)"/>
            <rect x="4" y="10" width="1" height="1" fill="rgb(227,97,73)"/>
          </g>
          <g id="shrimpwich-2-*{id}-body2">
            <rect x="19" y="14" width="1" height="1" fill="rgb(236,124,92)"/>
            <rect x="20" y="14" width="1" height="1" fill="rgb(217,76,56)"/>
            <rect x="21" y="14" width="1" height="1" fill="rgb(143,41,45)"/>
            <rect x="18" y="15" width="1" height="1" fill="rgb(235,122,89)"/>
            <rect x="19" y="15" width="1" height="1" fill="rgb(236,121,90)"/>
            <rect x="20" y="15" width="1" height="1" fill="rgb(216,74,55)"/>
            <rect x="21" y="15" width="1" height="1" fill="rgb(142,38,42)"/>
            <rect x="17" y="16" width="1" height="1" fill="rgb(224,106,79)"/>
            <rect x="18" y="16" width="1" height="1" fill="rgb(232,111,82)"/>
            <rect x="19" y="16" width="1" height="1" fill="rgb(232,110,82)"/>
            <rect x="20" y="16" width="1" height="1" fill="rgb(208,71,54)"/>
            <rect x="21" y="16" width="1" height="1" fill="rgb(141,38,43)"/>
            <rect x="17" y="17" width="1" height="1" fill="rgb(159,55,53)"/>
            <rect x="18" y="17" width="1" height="1" fill="rgb(202,98,76)"/>
            <rect x="19" y="17" width="1" height="1" fill="rgb(211,77,59)"/>
            <rect x="20" y="17" width="1" height="1" fill="rgb(186,60,47)"/>
            <rect x="21" y="17" width="1" height="1" fill="rgb(140,39,43)"/>
            <rect x="17" y="18" width="1" height="1" fill="rgb(159,57,55)"/>
            <rect x="18" y="18" width="1" height="1" fill="rgb(233,114,84)"/>
            <rect x="19" y="18" width="1" height="1" fill="rgb(233,113,84)"/>
            <rect x="20" y="18" width="1" height="1" fill="rgb(141,38,42)"/>
            <rect x="15" y="19" width="1" height="1" fill="rgb(179,97,89)"/>
            <rect x="16" y="19" width="1" height="1" fill="rgb(190,80,65)"/>
            <rect x="17" y="19" width="1" height="1" fill="rgb(211,77,59)"/>
            <rect x="18" y="19" width="1" height="1" fill="rgb(226,94,70)"/>
            <rect x="19" y="19" width="1" height="1" fill="rgb(226,96,72)"/>
            <rect x="20" y="19" width="1" height="1" fill="rgb(179,74,63)"/>
            <rect x="15" y="20" width="1" height="1" fill="rgb(232,111,82)"/>
            <rect x="16" y="20" width="1" height="1" fill="rgb(232,113,83)"/>
            <rect x="17" y="20" width="1" height="1" fill="rgb(231,104,77)"/>
            <rect x="18" y="20" width="1" height="1" fill="rgb(150,44,44)"/>
            <rect x="19" y="20" width="1" height="1" fill="rgb(147,56,56)"/>
            <rect x="15" y="21" width="1" height="1" fill="rgb(179,74,63)"/>
            <rect x="16" y="21" width="1" height="1" fill="rgb(179,74,63)"/>
            <rect x="17" y="21" width="1" height="1" fill="rgb(179,74,63)"/>
          </g>
          <g id="shrimpwich-2-*{id}-body1">
            <rect x="16" y="10" width="1" height="1" fill="rgb(177,73,61)"/>
            <rect x="17" y="10" width="1" height="1" fill="rgb(148,70,72)"/>
            <rect x="16" y="11" width="1" height="1" fill="rgb(239,130,95)"/>
            <rect x="17" y="11" width="1" height="1" fill="rgb(225,120,90)"/>
            <rect x="18" y="11" width="1" height="1" fill="rgb(211,77,59)"/>
            <rect x="19" y="11" width="1" height="1" fill="rgb(148,70,72)"/>
            <rect x="16" y="12" width="1" height="1" fill="rgb(238,126,92)"/>
            <rect x="17" y="12" width="1" height="1" fill="rgb(237,126,92)"/>
            <rect x="18" y="12" width="1" height="1" fill="rgb(238,125,91)"/>
            <rect x="19" y="12" width="1" height="1" fill="rgb(220,82,59)"/>
            <rect x="20" y="12" width="1" height="1" fill="rgb(148,70,72)"/>
            <rect x="16" y="13" width="1" height="1" fill="rgb(237,121,88)"/>
            <rect x="17" y="13" width="1" height="1" fill="rgb(237,121,89)"/>
            <rect x="18" y="13" width="1" height="1" fill="rgb(237,122,90)"/>
            <rect x="19" y="13" width="1" height="1" fill="rgb(211,77,59)"/>
            <rect x="20" y="13" width="1" height="1" fill="rgb(138,31,37)"/>
            <rect x="15" y="14" width="1" height="1" fill="rgb(233,107,79)"/>
            <rect x="16" y="14" width="1" height="1" fill="rgb(235,116,84)"/>
            <rect x="17" y="14" width="1" height="1" fill="rgb(235,116,86)"/>
            <rect x="18" y="14" width="1" height="1" fill="rgb(211,77,59)"/>
            <rect x="15" y="15" width="1" height="1" fill="rgb(177,65,57)"/>
            <rect x="16" y="15" width="1" height="1" fill="rgb(226,91,69)"/>
            <rect x="17" y="15" width="1" height="1" fill="rgb(202,98,76)"/>
            <rect x="16" y="16" width="1" height="1" fill="rgb(148,44,45)"/>
          </g>
          <g id="shrimpwich-2-*{id}-head">
            <rect x="9" y="10" width="1" height="1" fill="rgb(180,88,74)"/>
            <rect x="10" y="10" width="1" height="1" fill="rgb(180,88,74)"/>
            <rect x="11" y="10" width="1" height="1" fill="rgb(181,87,74)"/>
            <rect x="12" y="10" width="1" height="1" fill="rgb(181,88,76)"/>
            <rect x="13" y="10" width="1" height="1" fill="rgb(180,86,73)"/>
            <rect x="14" y="10" width="1" height="1" fill="rgb(179,74,63)"/>
            <rect x="15" y="10" width="1" height="1" fill="rgb(158,71,72)"/>
            <rect x="5" y="11" width="1" height="1" fill="rgb(159,53,50)"/>
            <rect x="6" y="11" width="1" height="1" fill="rgb(158,71,72)"/>
            <rect x="7" y="11" width="1" height="1" fill="rgb(158,70,73)"/>
            <rect x="8" y="11" width="1" height="1" fill="rgb(180,88,74)"/>
            <rect x="9" y="11" width="1" height="1" fill="rgb(230,104,77)"/>
            <rect x="10" y="11" width="1" height="1" fill="rgb(240,140,103)"/>
            <rect x="11" y="11" width="1" height="1" fill="rgb(240,139,102)"/>
            <rect x="12" y="11" width="1" height="1" fill="rgb(239,137,101)"/>
            <rect x="13" y="11" width="1" height="1" fill="rgb(238,135,99)"/>
            <rect x="14" y="11" width="1" height="1" fill="rgb(240,133,97)"/>
            <rect x="15" y="11" width="1" height="1" fill="rgb(211,77,59)"/>
            <rect x="5" y="12" width="1" height="1" fill="rgb(159,53,50)"/>
            <rect x="6" y="12" width="1" height="1" fill="rgb(218,92,68)"/>
            <rect x="7" y="12" width="1" height="1" fill="rgb(233,116,84)"/>
            <rect x="8" y="12" width="1" height="1" fill="rgb(240,131,95)"/>
            <rect x="9" y="12" width="1" height="1" fill="rgb(240,131,95)"/>
            <rect x="10" y="12" width="1" height="1" fill="rgb(240,140,103)"/>
            <rect x="11" y="12" width="1" height="1" fill="rgb(31,34,43)"/>
            <rect x="12" y="12" width="1" height="1" fill="rgb(237,128,92)"/>
            <rect x="13" y="12" width="1" height="1" fill="rgb(237,126,91)"/>
            <rect x="14" y="12" width="1" height="1" fill="rgb(239,131,95)"/>
            <rect x="15" y="12" width="1" height="1" fill="rgb(211,77,59)"/>
            <rect x="6" y="13" width="1" height="1" fill="rgb(158,70,73)"/>
            <rect x="7" y="13" width="1" height="1" fill="rgb(219,79,58)"/>
            <rect x="8" y="13" width="1" height="1" fill="rgb(230,104,77)"/>
            <rect x="9" y="13" width="1" height="1" fill="rgb(237,121,89)"/>
            <rect x="10" y="13" width="1" height="1" fill="rgb(240,140,103)"/>
            <rect x="11" y="13" width="1" height="1" fill="rgb(33,36,45)"/>
            <rect x="12" y="13" width="1" height="1" fill="rgb(237,124,90)"/>
            <rect x="13" y="13" width="1" height="1" fill="rgb(237,124,90)"/>
            <rect x="14" y="13" width="1" height="1" fill="rgb(238,128,93)"/>
            <rect x="15" y="13" width="1" height="1" fill="rgb(202,98,76)"/>
            <rect x="7" y="14" width="1" height="1" fill="rgb(158,70,73)"/>
            <rect x="8" y="14" width="1" height="1" fill="rgb(159,53,50)"/>
            <rect x="9" y="14" width="1" height="1" fill="rgb(206,72,56)"/>
            <rect x="10" y="14" width="1" height="1" fill="rgb(233,110,80)"/>
            <rect x="11" y="14" width="1" height="1" fill="rgb(233,108,79)"/>
            <rect x="12" y="14" width="1" height="1" fill="rgb(233,109,80)"/>
            <rect x="13" y="14" width="1" height="1" fill="rgb(233,110,81)"/>
            <rect x="14" y="14" width="1" height="1" fill="rgb(202,98,76)"/>
            <rect x="10" y="15" width="1" height="1" fill="rgb(159,53,50)"/>
            <rect x="11" y="15" width="1" height="1" fill="rgb(173,56,50)"/>
            <rect x="12" y="15" width="1" height="1" fill="rgb(172,56,50)"/>
            <rect x="13" y="15" width="1" height="1" fill="rgb(173,55,49)"/>
            <rect x="14" y="15" width="1" height="1" fill="rgb(148,44,46)"/>
          </g>
          <g id="shrimpwich-2-*{id}-tail" transform="rotate(-60deg)">
            <rect x="11" y="17" width="1" height="1" fill="rgb(158,71,72)"/>
            <rect x="12" y="17" width="1" height="1" fill="rgb(158,71,72)"/>
            <rect x="10" y="18" width="1" height="1" fill="rgb(158,71,72)"/>
            <rect x="11" y="18" width="1" height="1" fill="rgb(216,100,76)"/>
            <rect x="12" y="18" width="1" height="1" fill="rgb(234,115,85)"/>
            <rect x="13" y="18" width="1" height="1" fill="rgb(172,65,58)"/>
            <rect x="11" y="19" width="1" height="1" fill="rgb(183,74,66)"/>
            <rect x="12" y="19" width="1" height="1" fill="rgb(225,93,69)"/>
            <rect x="13" y="19" width="1" height="1" fill="rgb(225,93,68)"/>
            <rect x="14" y="19" width="1" height="1" fill="rgb(144,42,43)"/>
            <rect x="12" y="20" width="1" height="1" fill="rgb(221,84,62)"/>
            <rect x="13" y="20" width="1" height="1" fill="rgb(222,83,60)"/>
            <rect x="14" y="20" width="1" height="1" fill="rgb(202,98,76)"/>
            <rect x="13" y="21" width="1" height="1" fill="rgb(179,74,63)"/>
            <rect x="14" y="21" width="1" height="1" fill="rgb(143,40,41)"/>
          </g>
        </g>
      </g>
    </g>
  </g>
</svg>