<svg xmlns="http://www.w3.org/2000/svg" id="stage" viewBox="0 0 50 50" shape-rendering="crispEdges">
  <g id="SPFishbun-2-*{id}">
    <g id="SPFishbun-2-*{id}-anchors" visibility="hidden">
      <circle id="SPFishbun-2-*{id}-anchor-center" cx="25" cy="25" r="0.01"/>
      <circle id="SPFishbun-2-*{id}-anchor-label-top" cx="25" cy="10.5" r="0.01"/>
      <circle id="SPFishbun-2-*{id}-anchor-label-bottom" cx="25" cy="32.5" r="0.01"/>
    </g>

    <style>
#SPFishbun-2-*{id}-sprite {
  transform-box: fill-box;
  transform-origin: center;
  animation: SPFishbun-2-*{id}-flip 2.2s ease-in infinite;
}

@keyframes SPFishbun-2-*{id}-flip {
  0%,10% {
    transform: rotateX(0deg);
  }
  40% {
    transform: rotateX(70deg) scaleY(0.4);
  }
  50% {
    transform: rotateX(90deg) scaleY(0.1);
  }
  60% {
    transform: rotateX(70deg) scaleY(0.4);
  }
  90%, 100% {
    transform: rotateX(0deg) scaleY(1);
  }
}
    </style>

    <g id="SPFishbun-2-*{id}-wrapper" transform="translate(9, 9.5)">
      <g id="SPFishbun-2-*{id}-sprite" data-kind="sprite">
        <g id="SPFishbun-2-*{id}-body">
          <rect x="14" y="6" width="1" height="1" fill="#111111" fill-opacity="1.000"/>
          <rect x="15" y="6" width="1" height="1" fill="#222423" fill-opacity="1.000"/>
          <rect x="16" y="6" width="1" height="1" fill="#242625" fill-opacity="1.000"/>
          <rect x="17" y="6" width="1" height="1" fill="#262627" fill-opacity="1.000"/>
          <rect x="13" y="7" width="1" height="1" fill="#232323" fill-opacity="1.000"/>
          <rect x="14" y="7" width="1" height="1" fill="#242525" fill-opacity="1.000"/>
          <rect x="15" y="7" width="1" height="1" fill="#4f5051" fill-opacity="1.000"/>
          <rect x="16" y="7" width="1" height="1" fill="#292a29" fill-opacity="1.000"/>
          <rect x="17" y="7" width="1" height="1" fill="#181718" fill-opacity="1.000"/>
          <rect x="18" y="7" width="1" height="1" fill="#171718" fill-opacity="1.000"/>
          <rect x="12" y="8" width="1" height="1" fill="#171817" fill-opacity="1.000"/>
          <rect x="13" y="8" width="1" height="1" fill="#252626" fill-opacity="1.000"/>
          <rect x="14" y="8" width="1" height="1" fill="#4e5051" fill-opacity="1.000"/>
          <rect x="15" y="8" width="1" height="1" fill="#212322" fill-opacity="1.000"/>
          <rect x="16" y="8" width="1" height="1" fill="#252727" fill-opacity="1.000"/>
          <rect x="17" y="8" width="1" height="1" fill="#181818" fill-opacity="1.000"/>
          <rect x="18" y="8" width="1" height="1" fill="#171617" fill-opacity="1.000"/>
          <rect x="25" y="8" width="1" height="1" fill="#222323" fill-opacity="1.000"/>
          <rect x="26" y="8" width="1" height="1" fill="#212322" fill-opacity="1.000"/>
          <rect x="27" y="8" width="1" height="1" fill="#262627" fill-opacity="1.000"/>
          <rect x="7" y="9" width="1" height="1" fill="#171817" fill-opacity="1.000"/>
          <rect x="8" y="9" width="1" height="1" fill="#171817" fill-opacity="1.000"/>
          <rect x="9" y="9" width="1" height="1" fill="#171817" fill-opacity="1.000"/>
          <rect x="10" y="9" width="1" height="1" fill="#171817" fill-opacity="1.000"/>
          <rect x="11" y="9" width="1" height="1" fill="#171817" fill-opacity="1.000"/>
          <rect x="12" y="9" width="1" height="1" fill="#2c2d2c" fill-opacity="1.000"/>
          <rect x="13" y="9" width="1" height="1" fill="#474949" fill-opacity="1.000"/>
          <rect x="14" y="9" width="1" height="1" fill="#282928" fill-opacity="1.000"/>
          <rect x="15" y="9" width="1" height="1" fill="#393b3b" fill-opacity="1.000"/>
          <rect x="16" y="9" width="1" height="1" fill="#1d1f1e" fill-opacity="1.000"/>
          <rect x="17" y="9" width="1" height="1" fill="#242525" fill-opacity="1.000"/>
          <rect x="18" y="9" width="1" height="1" fill="#161617" fill-opacity="1.000"/>
          <rect x="19" y="9" width="1" height="1" fill="#181818" fill-opacity="1.000"/>
          <rect x="24" y="9" width="1" height="1" fill="#262625" fill-opacity="1.000"/>
          <rect x="25" y="9" width="1" height="1" fill="#242625" fill-opacity="1.000"/>
          <rect x="26" y="9" width="1" height="1" fill="#232424" fill-opacity="1.000"/>
          <rect x="27" y="9" width="1" height="1" fill="#242624" fill-opacity="1.000"/>
          <rect x="28" y="9" width="1" height="1" fill="#2a2b2c" fill-opacity="1.000"/>
          <rect x="6" y="10" width="1" height="1" fill="#171817" fill-opacity="1.000"/>
          <rect x="7" y="10" width="1" height="1" fill="#444444" fill-opacity="1.000"/>
          <rect x="8" y="10" width="1" height="1" fill="#373637" fill-opacity="1.000"/>
          <rect x="9" y="10" width="1" height="1" fill="#2b2c2c" fill-opacity="1.000"/>
          <rect x="10" y="10" width="1" height="1" fill="#323332" fill-opacity="1.000"/>
          <rect x="11" y="10" width="1" height="1" fill="#373938" fill-opacity="1.000"/>
          <rect x="12" y="10" width="1" height="1" fill="#464647" fill-opacity="1.000"/>
          <rect x="13" y="10" width="1" height="1" fill="#272928" fill-opacity="1.000"/>
          <rect x="14" y="10" width="1" height="1" fill="#3d3f3f" fill-opacity="1.000"/>
          <rect x="15" y="10" width="1" height="1" fill="#1a1c1a" fill-opacity="1.000"/>
          <rect x="16" y="10" width="1" height="1" fill="#343635" fill-opacity="1.000"/>
          <rect x="17" y="10" width="1" height="1" fill="#242424" fill-opacity="1.000"/>
          <rect x="18" y="10" width="1" height="1" fill="#171717" fill-opacity="1.000"/>
          <rect x="19" y="10" width="1" height="1" fill="#151515" fill-opacity="1.000"/>
          <rect x="23" y="10" width="1" height="1" fill="#212221" fill-opacity="1.000"/>
          <rect x="24" y="10" width="1" height="1" fill="#494a49" fill-opacity="1.000"/>
          <rect x="25" y="10" width="1" height="1" fill="#292a29" fill-opacity="1.000"/>
          <rect x="26" y="10" width="1" height="1" fill="#252726" fill-opacity="1.000"/>
          <rect x="27" y="10" width="1" height="1" fill="#232524" fill-opacity="1.000"/>
          <rect x="28" y="10" width="1" height="1" fill="#171717" fill-opacity="1.000"/>
          <rect x="5" y="11" width="1" height="1" fill="#171817" fill-opacity="1.000"/>
          <rect x="6" y="11" width="1" height="1" fill="#3d3e3e" fill-opacity="1.000"/>
          <rect x="7" y="11" width="1" height="1" fill="#242524" fill-opacity="1.000"/>
          <rect x="8" y="11" width="1" height="1" fill="#222322" fill-opacity="1.000"/>
          <rect x="9" y="11" width="1" height="1" fill="#262828" fill-opacity="1.000"/>
          <rect x="10" y="11" width="1" height="1" fill="#242424" fill-opacity="1.000"/>
          <rect x="11" y="11" width="1" height="1" fill="#252725" fill-opacity="1.000"/>
          <rect x="12" y="11" width="1" height="1" fill="#202222" fill-opacity="1.000"/>
          <rect x="13" y="11" width="1" height="1" fill="#333433" fill-opacity="1.000"/>
          <rect x="14" y="11" width="1" height="1" fill="#1c1e1e" fill-opacity="1.000"/>
          <rect x="15" y="11" width="1" height="1" fill="#1d1c1d" fill-opacity="1.000"/>
          <rect x="16" y="11" width="1" height="1" fill="#222423" fill-opacity="1.000"/>
          <rect x="17" y="11" width="1" height="1" fill="#181919" fill-opacity="1.000"/>
          <rect x="18" y="11" width="1" height="1" fill="#242524" fill-opacity="1.000"/>
          <rect x="19" y="11" width="1" height="1" fill="#171716" fill-opacity="1.000"/>
          <rect x="20" y="11" width="1" height="1" fill="#0c0d0d" fill-opacity="1.000"/>
          <rect x="22" y="11" width="1" height="1" fill="#272827" fill-opacity="1.000"/>
          <rect x="23" y="11" width="1" height="1" fill="#434545" fill-opacity="1.000"/>
          <rect x="24" y="11" width="1" height="1" fill="#242624" fill-opacity="1.000"/>
          <rect x="25" y="11" width="1" height="1" fill="#252627" fill-opacity="1.000"/>
          <rect x="26" y="11" width="1" height="1" fill="#242626" fill-opacity="1.000"/>
          <rect x="27" y="11" width="1" height="1" fill="#232423" fill-opacity="1.000"/>
          <rect x="28" y="11" width="1" height="1" fill="#161617" fill-opacity="1.000"/>
          <rect x="4" y="12" width="1" height="1" fill="#171817" fill-opacity="1.000"/>
          <rect x="5" y="12" width="1" height="1" fill="#454546" fill-opacity="1.000"/>
          <rect x="6" y="12" width="1" height="1" fill="#282829" fill-opacity="1.000"/>
          <rect x="7" y="12" width="1" height="1" fill="#292929" fill-opacity="1.000"/>
          <rect x="8" y="12" width="1" height="1" fill="#242424" fill-opacity="1.000"/>
          <rect x="9" y="12" width="1" height="1" fill="#29292b" fill-opacity="1.000"/>
          <rect x="10" y="12" width="1" height="1" fill="#272827" fill-opacity="1.000"/>
          <rect x="11" y="12" width="1" height="1" fill="#1b1c1c" fill-opacity="1.000"/>
          <rect x="12" y="12" width="1" height="1" fill="#3c3e3e" fill-opacity="1.000"/>
          <rect x="13" y="12" width="1" height="1" fill="#1e1d1e" fill-opacity="1.000"/>
          <rect x="14" y="12" width="1" height="1" fill="#373838" fill-opacity="1.000"/>
          <rect x="15" y="12" width="1" height="1" fill="#373839" fill-opacity="1.000"/>
          <rect x="16" y="12" width="1" height="1" fill="#1d1d1e" fill-opacity="1.000"/>
          <rect x="17" y="12" width="1" height="1" fill="#262727" fill-opacity="1.000"/>
          <rect x="18" y="12" width="1" height="1" fill="#191a1a" fill-opacity="1.000"/>
          <rect x="19" y="12" width="1" height="1" fill="#242524" fill-opacity="1.000"/>
          <rect x="20" y="12" width="1" height="1" fill="#171717" fill-opacity="1.000"/>
          <rect x="21" y="12" width="1" height="1" fill="#181717" fill-opacity="1.000"/>
          <rect x="22" y="12" width="1" height="1" fill="#525454" fill-opacity="1.000"/>
          <rect x="23" y="12" width="1" height="1" fill="#262626" fill-opacity="1.000"/>
          <rect x="24" y="12" width="1" height="1" fill="#232424" fill-opacity="1.000"/>
          <rect x="25" y="12" width="1" height="1" fill="#272827" fill-opacity="1.000"/>
          <rect x="26" y="12" width="1" height="1" fill="#252625" fill-opacity="1.000"/>
          <rect x="27" y="12" width="1" height="1" fill="#252727" fill-opacity="1.000"/>
          <rect x="28" y="12" width="1" height="1" fill="#161717" fill-opacity="1.000"/>
          <rect x="4" y="13" width="1" height="1" fill="#171817" fill-opacity="1.000"/>
          <rect x="5" y="13" width="1" height="1" fill="#252727" fill-opacity="1.000"/>
          <rect x="6" y="13" width="1" height="1" fill="#252726" fill-opacity="1.000"/>
          <rect x="7" y="13" width="1" height="1" fill="#3c3e3e" fill-opacity="1.000"/>
          <rect x="8" y="13" width="1" height="1" fill="#252525" fill-opacity="1.000"/>
          <rect x="9" y="13" width="1" height="1" fill="#272728" fill-opacity="1.000"/>
          <rect x="10" y="13" width="1" height="1" fill="#282728" fill-opacity="1.000"/>
          <rect x="11" y="13" width="1" height="1" fill="#232423" fill-opacity="1.000"/>
          <rect x="12" y="13" width="1" height="1" fill="#3f4141" fill-opacity="1.000"/>
          <rect x="13" y="13" width="1" height="1" fill="#1b1b1b" fill-opacity="1.000"/>
          <rect x="14" y="13" width="1" height="1" fill="#363636" fill-opacity="1.000"/>
          <rect x="15" y="13" width="1" height="1" fill="#1b1b1b" fill-opacity="1.000"/>
          <rect x="16" y="13" width="1" height="1" fill="#3c3d3d" fill-opacity="1.000"/>
          <rect x="17" y="13" width="1" height="1" fill="#252626" fill-opacity="1.000"/>
          <rect x="18" y="13" width="1" height="1" fill="#2e2f2e" fill-opacity="1.000"/>
          <rect x="19" y="13" width="1" height="1" fill="#202222" fill-opacity="1.000"/>
          <rect x="20" y="13" width="1" height="1" fill="#2b2b2b" fill-opacity="1.000"/>
          <rect x="21" y="13" width="1" height="1" fill="#4a4c4c" fill-opacity="1.000"/>
          <rect x="22" y="13" width="1" height="1" fill="#282929" fill-opacity="1.000"/>
          <rect x="23" y="13" width="1" height="1" fill="#232423" fill-opacity="1.000"/>
          <rect x="24" y="13" width="1" height="1" fill="#3b3b3b" fill-opacity="1.000"/>
          <rect x="25" y="13" width="1" height="1" fill="#1b1c1b" fill-opacity="1.000"/>
          <rect x="26" y="13" width="1" height="1" fill="#242424" fill-opacity="1.000"/>
          <rect x="27" y="13" width="1" height="1" fill="#252525" fill-opacity="1.000"/>
          <rect x="28" y="13" width="1" height="1" fill="#151616" fill-opacity="1.000"/>
          <rect x="3" y="14" width="1" height="1" fill="#171817" fill-opacity="1.000"/>
          <rect x="4" y="14" width="1" height="1" fill="#373637" fill-opacity="1.000"/>
          <rect x="5" y="14" width="1" height="1" fill="#232425" fill-opacity="1.000"/>
          <rect x="6" y="14" width="1" height="1" fill="#3c3e3e" fill-opacity="1.000"/>
          <rect x="7" y="14" width="1" height="1" fill="#1b1d1b" fill-opacity="1.000"/>
          <rect x="8" y="14" width="1" height="1" fill="#3c3e3e" fill-opacity="1.000"/>
          <rect x="9" y="14" width="1" height="1" fill="#242625" fill-opacity="1.000"/>
          <rect x="10" y="14" width="1" height="1" fill="#242626" fill-opacity="1.000"/>
          <rect x="11" y="14" width="1" height="1" fill="#343535" fill-opacity="1.000"/>
          <rect x="12" y="14" width="1" height="1" fill="#1b1b1a" fill-opacity="1.000"/>
          <rect x="13" y="14" width="1" height="1" fill="#333535" fill-opacity="1.000"/>
          <rect x="14" y="14" width="1" height="1" fill="#1b1b1b" fill-opacity="1.000"/>
          <rect x="15" y="14" width="1" height="1" fill="#3a3a3a" fill-opacity="1.000"/>
          <rect x="16" y="14" width="1" height="1" fill="#1c1b1c" fill-opacity="1.000"/>
          <rect x="17" y="14" width="1" height="1" fill="#353634" fill-opacity="1.000"/>
          <rect x="18" y="14" width="1" height="1" fill="#191a1a" fill-opacity="1.000"/>
          <rect x="19" y="14" width="1" height="1" fill="#3e3f3f" fill-opacity="1.000"/>
          <rect x="20" y="14" width="1" height="1" fill="#202221" fill-opacity="1.000"/>
          <rect x="21" y="14" width="1" height="1" fill="#212322" fill-opacity="1.000"/>
          <rect x="22" y="14" width="1" height="1" fill="#232525" fill-opacity="1.000"/>
          <rect x="23" y="14" width="1" height="1" fill="#3d3d3e" fill-opacity="1.000"/>
          <rect x="24" y="14" width="1" height="1" fill="#1b1c1a" fill-opacity="1.000"/>
          <rect x="25" y="14" width="1" height="1" fill="#282828" fill-opacity="1.000"/>
          <rect x="26" y="14" width="1" height="1" fill="#222323" fill-opacity="1.000"/>
          <rect x="27" y="14" width="1" height="1" fill="#161717" fill-opacity="1.000"/>
          <rect x="28" y="14" width="1" height="1" fill="#161717" fill-opacity="1.000"/>
          <rect x="2" y="15" width="1" height="1" fill="#171817" fill-opacity="1.000"/>
          <rect x="3" y="15" width="1" height="1" fill="#242524" fill-opacity="1.000"/>
          <rect x="4" y="15" width="1" height="1" fill="#373637" fill-opacity="1.000"/>
          <rect x="5" y="15" width="1" height="1" fill="#242525" fill-opacity="1.000"/>
          <rect x="6" y="15" width="1" height="1" fill="#3c3e3e" fill-opacity="1.000"/>
          <rect x="7" y="15" width="1" height="1" fill="#1b1d1b" fill-opacity="1.000"/>
          <rect x="8" y="15" width="1" height="1" fill="#3c3e3e" fill-opacity="1.000"/>
          <rect x="9" y="15" width="1" height="1" fill="#252727" fill-opacity="1.000"/>
          <rect x="10" y="15" width="1" height="1" fill="#232524" fill-opacity="1.000"/>
          <rect x="11" y="15" width="1" height="1" fill="#383937" fill-opacity="1.000"/>
          <rect x="12" y="15" width="1" height="1" fill="#1b1c1b" fill-opacity="1.000"/>
          <rect x="13" y="15" width="1" height="1" fill="#323434" fill-opacity="1.000"/>
          <rect x="14" y="15" width="1" height="1" fill="#262526" fill-opacity="1.000"/>
          <rect x="15" y="15" width="1" height="1" fill="#313132" fill-opacity="1.000"/>
          <rect x="16" y="15" width="1" height="1" fill="#242424" fill-opacity="1.000"/>
          <rect x="17" y="15" width="1" height="1" fill="#3b3c3c" fill-opacity="1.000"/>
          <rect x="18" y="15" width="1" height="1" fill="#222423" fill-opacity="1.000"/>
          <rect x="19" y="15" width="1" height="1" fill="#2d2d2e" fill-opacity="1.000"/>
          <rect x="20" y="15" width="1" height="1" fill="#2b2c2b" fill-opacity="1.000"/>
          <rect x="21" y="15" width="1" height="1" fill="#212323" fill-opacity="1.000"/>
          <rect x="22" y="15" width="1" height="1" fill="#242526" fill-opacity="1.000"/>
          <rect x="23" y="15" width="1" height="1" fill="#282829" fill-opacity="1.000"/>
          <rect x="24" y="15" width="1" height="1" fill="#353636" fill-opacity="1.000"/>
          <rect x="25" y="15" width="1" height="1" fill="#262727" fill-opacity="1.000"/>
          <rect x="26" y="15" width="1" height="1" fill="#202121" fill-opacity="1.000"/>
          <rect x="27" y="15" width="1" height="1" fill="#171717" fill-opacity="1.000"/>
          <rect x="28" y="15" width="1" height="1" fill="#191919" fill-opacity="1.000"/>
          <rect x="2" y="16" width="1" height="1" fill="#171817" fill-opacity="1.000"/>
          <rect x="3" y="16" width="1" height="1" fill="#404041" fill-opacity="1.000"/>
          <rect x="4" y="16" width="1" height="1" fill="#252526" fill-opacity="1.000"/>
          <rect x="5" y="16" width="1" height="1" fill="#252625" fill-opacity="1.000"/>
          <rect x="6" y="16" width="1" height="1" fill="#252626" fill-opacity="1.000"/>
          <rect x="7" y="16" width="1" height="1" fill="#3c3e3e" fill-opacity="1.000"/>
          <rect x="8" y="16" width="1" height="1" fill="#262827" fill-opacity="1.000"/>
          <rect x="9" y="16" width="1" height="1" fill="#252526" fill-opacity="1.000"/>
          <rect x="10" y="16" width="1" height="1" fill="#222222" fill-opacity="1.000"/>
          <rect x="11" y="16" width="1" height="1" fill="#373838" fill-opacity="1.000"/>
          <rect x="12" y="16" width="1" height="1" fill="#1a1a1a" fill-opacity="1.000"/>
          <rect x="13" y="16" width="1" height="1" fill="#232425" fill-opacity="1.000"/>
          <rect x="14" y="16" width="1" height="1" fill="#3a3b3b" fill-opacity="1.000"/>
          <rect x="15" y="16" width="1" height="1" fill="#252626" fill-opacity="1.000"/>
          <rect x="16" y="16" width="1" height="1" fill="#353635" fill-opacity="1.000"/>
          <rect x="17" y="16" width="1" height="1" fill="#212222" fill-opacity="1.000"/>
          <rect x="18" y="16" width="1" height="1" fill="#343535" fill-opacity="1.000"/>
          <rect x="19" y="16" width="1" height="1" fill="#262728" fill-opacity="1.000"/>
          <rect x="20" y="16" width="1" height="1" fill="#3a3a3a" fill-opacity="1.000"/>
          <rect x="21" y="16" width="1" height="1" fill="#1b1c1c" fill-opacity="1.000"/>
          <rect x="22" y="16" width="1" height="1" fill="#202222" fill-opacity="1.000"/>
          <rect x="23" y="16" width="1" height="1" fill="#1d1e1d" fill-opacity="1.000"/>
          <rect x="24" y="16" width="1" height="1" fill="#1b1d1d" fill-opacity="1.000"/>
          <rect x="25" y="16" width="1" height="1" fill="#262726" fill-opacity="1.000"/>
          <rect x="26" y="16" width="1" height="1" fill="#252626" fill-opacity="1.000"/>
          <rect x="27" y="16" width="1" height="1" fill="#171718" fill-opacity="1.000"/>
          <rect x="28" y="16" width="1" height="1" fill="#181718" fill-opacity="1.000"/>
          <rect x="2" y="17" width="1" height="1" fill="#242524" fill-opacity="1.000"/>
          <rect x="3" y="17" width="1" height="1" fill="#333434" fill-opacity="1.000"/>
          <rect x="4" y="17" width="1" height="1" fill="#2d2d31" fill-opacity="1.000"/>
          <rect x="5" y="17" width="1" height="1" fill="#252626" fill-opacity="1.000"/>
          <rect x="6" y="17" width="1" height="1" fill="#272828" fill-opacity="1.000"/>
          <rect x="7" y="17" width="1" height="1" fill="#282829" fill-opacity="1.000"/>
          <rect x="8" y="17" width="1" height="1" fill="#232423" fill-opacity="1.000"/>
          <rect x="9" y="17" width="1" height="1" fill="#222222" fill-opacity="1.000"/>
          <rect x="10" y="17" width="1" height="1" fill="#272828" fill-opacity="1.000"/>
          <rect x="11" y="17" width="1" height="1" fill="#2b2d2d" fill-opacity="1.000"/>
          <rect x="12" y="17" width="1" height="1" fill="#191918" fill-opacity="1.000"/>
          <rect x="13" y="17" width="1" height="1" fill="#363636" fill-opacity="1.000"/>
          <rect x="14" y="17" width="1" height="1" fill="#1b1b1b" fill-opacity="1.000"/>
          <rect x="15" y="17" width="1" height="1" fill="#3c3c3b" fill-opacity="1.000"/>
          <rect x="16" y="17" width="1" height="1" fill="#1b1c1b" fill-opacity="1.000"/>
          <rect x="17" y="17" width="1" height="1" fill="#3b3d3d" fill-opacity="1.000"/>
          <rect x="18" y="17" width="1" height="1" fill="#1a1c1b" fill-opacity="1.000"/>
          <rect x="19" y="17" width="1" height="1" fill="#2a2a2a" fill-opacity="1.000"/>
          <rect x="20" y="17" width="1" height="1" fill="#2b2b2b" fill-opacity="1.000"/>
          <rect x="21" y="17" width="1" height="1" fill="#1a1a19" fill-opacity="1.000"/>
          <rect x="22" y="17" width="1" height="1" fill="#212121" fill-opacity="1.000"/>
          <rect x="23" y="17" width="1" height="1" fill="#343534" fill-opacity="1.000"/>
          <rect x="24" y="17" width="1" height="1" fill="#373837" fill-opacity="1.000"/>
          <rect x="25" y="17" width="1" height="1" fill="#262726" fill-opacity="1.000"/>
          <rect x="26" y="17" width="1" height="1" fill="#272828" fill-opacity="1.000"/>
          <rect x="27" y="17" width="1" height="1" fill="#171716" fill-opacity="1.000"/>
          <rect x="28" y="17" width="1" height="1" fill="#151616" fill-opacity="1.000"/>
          <rect x="29" y="17" width="1" height="1" fill="#151515" fill-opacity="1.000"/>
          <rect x="2" y="18" width="1" height="1" fill="#1e1e1e" fill-opacity="1.000"/>
          <rect x="3" y="18" width="1" height="1" fill="#1a1a1b" fill-opacity="1.000"/>
          <rect x="4" y="18" width="1" height="1" fill="#363737" fill-opacity="1.000"/>
          <rect x="5" y="18" width="1" height="1" fill="#2b2b2a" fill-opacity="1.000"/>
          <rect x="6" y="18" width="1" height="1" fill="#282928" fill-opacity="1.000"/>
          <rect x="7" y="18" width="1" height="1" fill="#242422" fill-opacity="1.000"/>
          <rect x="8" y="18" width="1" height="1" fill="#232423" fill-opacity="1.000"/>
          <rect x="9" y="18" width="1" height="1" fill="#222423" fill-opacity="1.000"/>
          <rect x="10" y="18" width="1" height="1" fill="#3a3b3a" fill-opacity="1.000"/>
          <rect x="11" y="18" width="1" height="1" fill="#1d1e1e" fill-opacity="1.000"/>
          <rect x="12" y="18" width="1" height="1" fill="#1d1e1f" fill-opacity="1.000"/>
          <rect x="13" y="18" width="1" height="1" fill="#1e1f1e" fill-opacity="1.000"/>
          <rect x="14" y="18" width="1" height="1" fill="#1c1d1d" fill-opacity="1.000"/>
          <rect x="15" y="18" width="1" height="1" fill="#363738" fill-opacity="1.000"/>
          <rect x="16" y="18" width="1" height="1" fill="#242425" fill-opacity="1.000"/>
          <rect x="17" y="18" width="1" height="1" fill="#353534" fill-opacity="1.000"/>
          <rect x="18" y="18" width="1" height="1" fill="#272928" fill-opacity="1.000"/>
          <rect x="19" y="18" width="1" height="1" fill="#363736" fill-opacity="1.000"/>
          <rect x="20" y="18" width="1" height="1" fill="#252525" fill-opacity="1.000"/>
          <rect x="21" y="18" width="1" height="1" fill="#191a1a" fill-opacity="1.000"/>
          <rect x="22" y="18" width="1" height="1" fill="#272626" fill-opacity="1.000"/>
          <rect x="23" y="18" width="1" height="1" fill="#202121" fill-opacity="1.000"/>
          <rect x="24" y="18" width="1" height="1" fill="#232424" fill-opacity="1.000"/>
          <rect x="25" y="18" width="1" height="1" fill="#2c2d2c" fill-opacity="1.000"/>
          <rect x="26" y="18" width="1" height="1" fill="#212322" fill-opacity="1.000"/>
          <rect x="27" y="18" width="1" height="1" fill="#272827" fill-opacity="1.000"/>
          <rect x="28" y="18" width="1" height="1" fill="#262526" fill-opacity="1.000"/>
          <rect x="29" y="18" width="1" height="1" fill="#151616" fill-opacity="1.000"/>
          <rect x="3" y="19" width="1" height="1" fill="#161616" fill-opacity="1.000"/>
          <rect x="4" y="19" width="1" height="1" fill="#1b1c1c" fill-opacity="1.000"/>
          <rect x="5" y="19" width="1" height="1" fill="#252626" fill-opacity="1.000"/>
          <rect x="6" y="19" width="1" height="1" fill="#282828" fill-opacity="1.000"/>
          <rect x="7" y="19" width="1" height="1" fill="#222323" fill-opacity="1.000"/>
          <rect x="8" y="19" width="1" height="1" fill="#252627" fill-opacity="1.000"/>
          <rect x="9" y="19" width="1" height="1" fill="#353535" fill-opacity="1.000"/>
          <rect x="10" y="19" width="1" height="1" fill="#1c1c1d" fill-opacity="1.000"/>
          <rect x="11" y="19" width="1" height="1" fill="#2d2d2e" fill-opacity="1.000"/>
          <rect x="12" y="19" width="1" height="1" fill="#1d1d1e" fill-opacity="1.000"/>
          <rect x="13" y="19" width="1" height="1" fill="#282728" fill-opacity="1.000"/>
          <rect x="14" y="19" width="1" height="1" fill="#1a1b1b" fill-opacity="1.000"/>
          <rect x="15" y="19" width="1" height="1" fill="#222322" fill-opacity="1.000"/>
          <rect x="16" y="19" width="1" height="1" fill="#393a3a" fill-opacity="1.000"/>
          <rect x="17" y="19" width="1" height="1" fill="#1b1c1b" fill-opacity="1.000"/>
          <rect x="18" y="19" width="1" height="1" fill="#353635" fill-opacity="1.000"/>
          <rect x="19" y="19" width="1" height="1" fill="#272829" fill-opacity="1.000"/>
          <rect x="20" y="19" width="1" height="1" fill="#1d1d1e" fill-opacity="1.000"/>
          <rect x="21" y="19" width="1" height="1" fill="#242425" fill-opacity="1.000"/>
          <rect x="22" y="19" width="1" height="1" fill="#232323" fill-opacity="1.000"/>
          <rect x="23" y="19" width="1" height="1" fill="#353635" fill-opacity="1.000"/>
          <rect x="24" y="19" width="1" height="1" fill="#3d3f3e" fill-opacity="1.000"/>
          <rect x="25" y="19" width="1" height="1" fill="#353737" fill-opacity="1.000"/>
          <rect x="26" y="19" width="1" height="1" fill="#222324" fill-opacity="1.000"/>
          <rect x="27" y="19" width="1" height="1" fill="#282828" fill-opacity="1.000"/>
          <rect x="28" y="19" width="1" height="1" fill="#1e1e1f" fill-opacity="1.000"/>
          <rect x="29" y="19" width="1" height="1" fill="#161716" fill-opacity="1.000"/>
          <rect x="4" y="20" width="1" height="1" fill="#1b1b1b" fill-opacity="1.000"/>
          <rect x="5" y="20" width="1" height="1" fill="#191a1a" fill-opacity="1.000"/>
          <rect x="6" y="20" width="1" height="1" fill="#2d2e2f" fill-opacity="1.000"/>
          <rect x="7" y="20" width="1" height="1" fill="#232424" fill-opacity="1.000"/>
          <rect x="8" y="20" width="1" height="1" fill="#272827" fill-opacity="1.000"/>
          <rect x="9" y="20" width="1" height="1" fill="#1a1a1a" fill-opacity="1.000"/>
          <rect x="10" y="20" width="1" height="1" fill="#262727" fill-opacity="1.000"/>
          <rect x="11" y="20" width="1" height="1" fill="#262726" fill-opacity="1.000"/>
          <rect x="12" y="20" width="1" height="1" fill="#414141" fill-opacity="1.000"/>
          <rect x="13" y="20" width="1" height="1" fill="#333333" fill-opacity="1.000"/>
          <rect x="14" y="20" width="1" height="1" fill="#1a1a1a" fill-opacity="1.000"/>
          <rect x="15" y="20" width="1" height="1" fill="#2d2e2d" fill-opacity="1.000"/>
          <rect x="16" y="20" width="1" height="1" fill="#383938" fill-opacity="1.000"/>
          <rect x="17" y="20" width="1" height="1" fill="#262625" fill-opacity="1.000"/>
          <rect x="18" y="20" width="1" height="1" fill="#222422" fill-opacity="1.000"/>
          <rect x="19" y="20" width="1" height="1" fill="#1c1c1c" fill-opacity="1.000"/>
          <rect x="20" y="20" width="1" height="1" fill="#262626" fill-opacity="1.000"/>
          <rect x="21" y="20" width="1" height="1" fill="#1b1b1b" fill-opacity="1.000"/>
          <rect x="22" y="20" width="1" height="1" fill="#191918" fill-opacity="1.000"/>
          <rect x="23" y="20" width="1" height="1" fill="#191a19" fill-opacity="1.000"/>
          <rect x="24" y="20" width="1" height="1" fill="#252626" fill-opacity="1.000"/>
          <rect x="25" y="20" width="1" height="1" fill="#202020" fill-opacity="1.000"/>
          <rect x="26" y="20" width="1" height="1" fill="#1f211f" fill-opacity="1.000"/>
          <rect x="27" y="20" width="1" height="1" fill="#212222" fill-opacity="1.000"/>
          <rect x="28" y="20" width="1" height="1" fill="#1e1f1e" fill-opacity="1.000"/>
          <rect x="29" y="20" width="1" height="1" fill="#161615" fill-opacity="1.000"/>
          <rect x="5" y="21" width="1" height="1" fill="#1a1b1a" fill-opacity="1.000"/>
          <rect x="6" y="21" width="1" height="1" fill="#1a1a1b" fill-opacity="1.000"/>
          <rect x="7" y="21" width="1" height="1" fill="#1f2120" fill-opacity="1.000"/>
          <rect x="8" y="21" width="1" height="1" fill="#292a2a" fill-opacity="1.000"/>
          <rect x="9" y="21" width="1" height="1" fill="#282928" fill-opacity="1.000"/>
          <rect x="10" y="21" width="1" height="1" fill="#2a2b2b" fill-opacity="1.000"/>
          <rect x="11" y="21" width="1" height="1" fill="#222424" fill-opacity="1.000"/>
          <rect x="12" y="21" width="1" height="1" fill="#262827" fill-opacity="1.000"/>
          <rect x="13" y="21" width="1" height="1" fill="#1b1b1b" fill-opacity="1.000"/>
          <rect x="14" y="21" width="1" height="1" fill="#2b2b2b" fill-opacity="1.000"/>
          <rect x="15" y="21" width="1" height="1" fill="#252525" fill-opacity="1.000"/>
          <rect x="16" y="21" width="1" height="1" fill="#1b1c1b" fill-opacity="1.000"/>
          <rect x="17" y="21" width="1" height="1" fill="#2d2d2d" fill-opacity="1.000"/>
          <rect x="18" y="21" width="1" height="1" fill="#1b1b1c" fill-opacity="1.000"/>
          <rect x="19" y="21" width="1" height="1" fill="#272727" fill-opacity="1.000"/>
          <rect x="20" y="21" width="1" height="1" fill="#1a1b1b" fill-opacity="1.000"/>
          <rect x="21" y="21" width="1" height="1" fill="#161615" fill-opacity="1.000"/>
          <rect x="22" y="21" width="1" height="1" fill="#161616" fill-opacity="1.000"/>
          <rect x="23" y="21" width="1" height="1" fill="#151515" fill-opacity="1.000"/>
          <rect x="24" y="21" width="1" height="1" fill="#262827" fill-opacity="1.000"/>
          <rect x="25" y="21" width="1" height="1" fill="#2e312f" fill-opacity="1.000"/>
          <rect x="26" y="21" width="1" height="1" fill="#222323" fill-opacity="1.000"/>
          <rect x="27" y="21" width="1" height="1" fill="#232423" fill-opacity="1.000"/>
          <rect x="28" y="21" width="1" height="1" fill="#1e1f1f" fill-opacity="1.000"/>
          <rect x="29" y="21" width="1" height="1" fill="#161616" fill-opacity="1.000"/>
          <rect x="6" y="22" width="1" height="1" fill="#141415" fill-opacity="1.000"/>
          <rect x="7" y="22" width="1" height="1" fill="#181919" fill-opacity="1.000"/>
          <rect x="8" y="22" width="1" height="1" fill="#202122" fill-opacity="1.000"/>
          <rect x="9" y="22" width="1" height="1" fill="#252626" fill-opacity="1.000"/>
          <rect x="10" y="22" width="1" height="1" fill="#242524" fill-opacity="1.000"/>
          <rect x="11" y="22" width="1" height="1" fill="#232423" fill-opacity="1.000"/>
          <rect x="12" y="22" width="1" height="1" fill="#242424" fill-opacity="1.000"/>
          <rect x="13" y="22" width="1" height="1" fill="#252726" fill-opacity="1.000"/>
          <rect x="14" y="22" width="1" height="1" fill="#232424" fill-opacity="1.000"/>
          <rect x="15" y="22" width="1" height="1" fill="#1e1e1f" fill-opacity="1.000"/>
          <rect x="16" y="22" width="1" height="1" fill="#232424" fill-opacity="1.000"/>
          <rect x="17" y="22" width="1" height="1" fill="#212221" fill-opacity="1.000"/>
          <rect x="18" y="22" width="1" height="1" fill="#262727" fill-opacity="1.000"/>
          <rect x="19" y="22" width="1" height="1" fill="#191a1a" fill-opacity="1.000"/>
          <rect x="20" y="22" width="1" height="1" fill="#161616" fill-opacity="1.000"/>
          <rect x="21" y="22" width="1" height="1" fill="#151514" fill-opacity="1.000"/>
          <rect x="22" y="22" width="1" height="1" fill="#0e0f0f" fill-opacity="1.000"/>
          <rect x="23" y="22" width="1" height="1" fill="#151515" fill-opacity="1.000"/>
          <rect x="24" y="22" width="1" height="1" fill="#151515" fill-opacity="1.000"/>
          <rect x="25" y="22" width="1" height="1" fill="#151515" fill-opacity="1.000"/>
          <rect x="26" y="22" width="1" height="1" fill="#161617" fill-opacity="1.000"/>
          <rect x="27" y="22" width="1" height="1" fill="#161616" fill-opacity="1.000"/>
          <rect x="28" y="22" width="1" height="1" fill="#151516" fill-opacity="1.000"/>
          <rect x="29" y="22" width="1" height="1" fill="#161616" fill-opacity="1.000"/>
          <rect x="8" y="23" width="1" height="1" fill="#191919" fill-opacity="1.000"/>
          <rect x="9" y="23" width="1" height="1" fill="#181818" fill-opacity="1.000"/>
          <rect x="10" y="23" width="1" height="1" fill="#181817" fill-opacity="1.000"/>
          <rect x="11" y="23" width="1" height="1" fill="#171717" fill-opacity="1.000"/>
          <rect x="12" y="23" width="1" height="1" fill="#191919" fill-opacity="1.000"/>
          <rect x="13" y="23" width="1" height="1" fill="#171718" fill-opacity="1.000"/>
          <rect x="14" y="23" width="1" height="1" fill="#181818" fill-opacity="1.000"/>
          <rect x="15" y="23" width="1" height="1" fill="#181919" fill-opacity="1.000"/>
          <rect x="16" y="23" width="1" height="1" fill="#212421" fill-opacity="1.000"/>
          <rect x="17" y="23" width="1" height="1" fill="#212323" fill-opacity="1.000"/>
          <rect x="18" y="23" width="1" height="1" fill="#292929" fill-opacity="1.000"/>
          <rect x="19" y="23" width="1" height="1" fill="#141615" fill-opacity="1.000"/>
          <rect x="20" y="23" width="1" height="1" fill="#141514" fill-opacity="1.000"/>
          <rect x="24" y="23" width="1" height="1" fill="#131313" fill-opacity="1.000"/>
          <rect x="25" y="23" width="1" height="1" fill="#141414" fill-opacity="1.000"/>
          <rect x="26" y="23" width="1" height="1" fill="#131413" fill-opacity="1.000"/>
          <rect x="27" y="23" width="1" height="1" fill="#151413" fill-opacity="1.000"/>
          <rect x="28" y="23" width="1" height="1" fill="#151515" fill-opacity="1.000"/>
          <rect x="29" y="23" width="1" height="1" fill="#141414" fill-opacity="1.000"/>
          <rect x="10" y="24" width="1" height="1" fill="#181819" fill-opacity="1.000"/>
          <rect x="11" y="24" width="1" height="1" fill="#171817" fill-opacity="1.000"/>
          <rect x="12" y="24" width="1" height="1" fill="#1a1a19" fill-opacity="1.000"/>
          <rect x="13" y="24" width="1" height="1" fill="#181818" fill-opacity="1.000"/>
          <rect x="14" y="24" width="1" height="1" fill="#181918" fill-opacity="1.000"/>
          <rect x="15" y="24" width="1" height="1" fill="#161818" fill-opacity="1.000"/>
          <rect x="16" y="24" width="1" height="1" fill="#171818" fill-opacity="1.000"/>
          <rect x="17" y="24" width="1" height="1" fill="#181818" fill-opacity="1.000"/>
        </g>
      </g>
    </g>
  </g>
</svg>