<svg xmlns="http://www.w3.org/2000/svg" id="stage" viewBox="0 0 50 50" shape-rendering="crispEdges">
  <g id="SPFishbun-3-*{id}">
    <g id="SPFishbun-3-*{id}-anchors" visibility="hidden">
      <circle id="SPFishbun-3-*{id}-anchor-center" cx="25" cy="25" r="0.01"/>
      <circle id="SPFishbun-3-*{id}-anchor-label-top" cx="25" cy="16" r="0.01"/>
      <circle id="SPFishbun-3-*{id}-anchor-label-bottom" cx="25" cy="35" r="0.01"/>
    </g>

    <style>
#SPFishbun-3-*{id}-body,
#SPFishbun-3-*{id}-tail,
#SPFishbun-3-*{id}-bubble1,
#SPFishbun-3-*{id}-bubble2 {
  transform-box: fill-box;
}

/* --- body: 통통 헤엄치는 바운스 + 약간의 회전 --- */
#SPFishbun-3-*{id}-body {
  transform-origin: right top;
  animation: SPFishbun-3-*{id}-body-swim 1.6s ease-in-out infinite;
}

@keyframes SPFishbun-3-*{id}-body-swim {
  0% {
    transform: rotate(0deg);
  }
  20% {
    transform: rotate(-2deg);
  }
  50% {
    transform: rotate(-4deg);
  }
  80% {
    transform: rotate(-1deg);
  }
  100% {
    transform: rotate(0deg);
  }
}

/* --- tail: 몸통보다 살짝 늦게 흔들리는 꼬리 --- */
#SPFishbun-3-*{id}-tail {
  transform-origin: left top;
  animation: SPFishbun-3-*{id}-tail-swim 1.6s ease-in-out infinite;
}

@keyframes SPFishbun-3-*{id}-tail-swim {
  0% {
    transform: rotate(0deg);
  }
  25% {
    transform: rotate(2deg);
  }
  50% {
    transform: rotate(4deg);
  }
  75% {
    transform: rotate(1deg);
  }
  100% {
    transform: rotate(0deg);
  }
}

/* --- bubble1: 위에서 시작하는 큰 공기방울 --- */
#SPFishbun-3-*{id}-bubble1 {
  transform-origin: center;
  animation: SPFishbun-3-*{id}-bubble1-rise 1.8s ease-out infinite;
  animation-delay: 0.4s;
}

@keyframes SPFishbun-3-*{id}-bubble1-rise {
  0% {
    transform: translateY(0px);
    opacity: 0;
  }
  10% {
    opacity: 0.5;
  }
  70% {
    opacity: 0.7;
  }
  100% {
    transform: translateY(-10px) scale(1.3);
    opacity: 0;
  }
}

/* --- bubble2: 더 작은, 아래에서 시작하는 공기방울 (살짝 딜레이) --- */
#SPFishbun-3-*{id}-bubble2 {
  transform-origin: center;
  animation: SPFishbun-3-*{id}-bubble2-rise 1.8s ease-out infinite;
}

@keyframes SPFishbun-3-*{id}-bubble2-rise {
  0% {
    transform: translateY(0px);
    opacity: 0;
  }
  10% {
    opacity: 0.5;
  }
  70% {
    opacity: 0.7;
  }
  100% {
    transform: translateY(-6px) scale(1.2);
    opacity: 0;
  }
}
    </style>

    <g id="SPFishbun-3-*{id}-wrapper" transform="translate(5, 3)">
      <g id="SPFishbun-3-*{id}-sprite" data-kind="sprite">
        <g id="SPFishbun-3-*{id}-body">
          <rect x="23" y="15" width="1" height="1" fill="#b26063" fill-opacity="1.000"/>
          <rect x="24" y="15" width="1" height="1" fill="#a45151" fill-opacity="1.000"/>
          <rect x="25" y="15" width="1" height="1" fill="#ad5859" fill-opacity="1.000"/>
          <rect x="22" y="16" width="1" height="1" fill="#a55253" fill-opacity="1.000"/>
          <rect x="23" y="16" width="1" height="1" fill="#e27e7d" fill-opacity="1.000"/>
          <rect x="24" y="16" width="1" height="1" fill="#e68485" fill-opacity="1.000"/>
          <rect x="25" y="16" width="1" height="1" fill="#c55b5c" fill-opacity="1.000"/>
          <rect x="15" y="17" width="1" height="1" fill="#9c4c4d" fill-opacity="1.000"/>
          <rect x="16" y="17" width="1" height="1" fill="#be7677" fill-opacity="1.000"/>
          <rect x="17" y="17" width="1" height="1" fill="#b76768" fill-opacity="1.000"/>
          <rect x="18" y="17" width="1" height="1" fill="#a54f51" fill-opacity="1.000"/>
          <rect x="19" y="17" width="1" height="1" fill="#a55454" fill-opacity="1.000"/>
          <rect x="21" y="17" width="1" height="1" fill="#b87071" fill-opacity="1.000"/>
          <rect x="22" y="17" width="1" height="1" fill="#e88583" fill-opacity="1.000"/>
          <rect x="23" y="17" width="1" height="1" fill="#e37e7e" fill-opacity="1.000"/>
          <rect x="24" y="17" width="1" height="1" fill="#d06767" fill-opacity="1.000"/>
          <rect x="25" y="17" width="1" height="1" fill="#c46161" fill-opacity="1.000"/>
          <rect x="13" y="18" width="1" height="1" fill="#b46263" fill-opacity="1.000"/>
          <rect x="14" y="18" width="1" height="1" fill="#d36868" fill-opacity="1.000"/>
          <rect x="15" y="18" width="1" height="1" fill="#e77f7f" fill-opacity="1.000"/>
          <rect x="16" y="18" width="1" height="1" fill="#ec8787" fill-opacity="1.000"/>
          <rect x="17" y="18" width="1" height="1" fill="#e68180" fill-opacity="1.000"/>
          <rect x="18" y="18" width="1" height="1" fill="#e57f7d" fill-opacity="1.000"/>
          <rect x="19" y="18" width="1" height="1" fill="#d46c6d" fill-opacity="1.000"/>
          <rect x="20" y="18" width="1" height="1" fill="#bc7477" fill-opacity="1.000"/>
          <rect x="21" y="18" width="1" height="1" fill="#d66c6e" fill-opacity="1.000"/>
          <rect x="22" y="18" width="1" height="1" fill="#ed9a62" fill-opacity="1.000"/>
          <rect x="23" y="18" width="1" height="1" fill="#e2845f" fill-opacity="1.000"/>
          <rect x="24" y="18" width="1" height="1" fill="#9a4b4c" fill-opacity="1.000"/>
          <rect x="25" y="18" width="1" height="1" fill="#d16668" fill-opacity="1.000"/>
          <rect x="26" y="18" width="1" height="1" fill="#b35e5f" fill-opacity="1.000"/>
          <rect x="12" y="19" width="1" height="1" fill="#ab5656" fill-opacity="1.000"/>
          <rect x="13" y="19" width="1" height="1" fill="#ec9596" fill-opacity="1.000"/>
          <rect x="14" y="19" width="1" height="1" fill="#eb9290" fill-opacity="1.000"/>
          <rect x="15" y="19" width="1" height="1" fill="#ed9593" fill-opacity="1.000"/>
          <rect x="16" y="19" width="1" height="1" fill="#e9928f" fill-opacity="1.000"/>
          <rect x="17" y="19" width="1" height="1" fill="#ee9f9e" fill-opacity="1.000"/>
          <rect x="18" y="19" width="1" height="1" fill="#e67d7d" fill-opacity="1.000"/>
          <rect x="19" y="19" width="1" height="1" fill="#e88481" fill-opacity="1.000"/>
          <rect x="20" y="19" width="1" height="1" fill="#e47f7e" fill-opacity="1.000"/>
          <rect x="21" y="19" width="1" height="1" fill="#e78180" fill-opacity="1.000"/>
          <rect x="22" y="19" width="1" height="1" fill="#d76d6f" fill-opacity="1.000"/>
          <rect x="23" y="19" width="1" height="1" fill="#a44f52" fill-opacity="1.000"/>
          <rect x="24" y="19" width="1" height="1" fill="#c75c5d" fill-opacity="1.000"/>
          <rect x="25" y="19" width="1" height="1" fill="#e2845f" fill-opacity="1.000"/>
          <rect x="26" y="19" width="1" height="1" fill="#d16767" fill-opacity="1.000"/>
          <rect x="27" y="19" width="1" height="1" fill="#b06060" fill-opacity="1.000"/>
          <rect x="11" y="20" width="1" height="1" fill="#a44f51" fill-opacity="1.000"/>
          <rect x="12" y="20" width="1" height="1" fill="#eb918f" fill-opacity="1.000"/>
          <rect x="13" y="20" width="1" height="1" fill="#ed9999" fill-opacity="1.000"/>
          <rect x="14" y="20" width="1" height="1" fill="#ea8283" fill-opacity="1.000"/>
          <rect x="15" y="20" width="1" height="1" fill="#eb8787" fill-opacity="1.000"/>
          <rect x="16" y="20" width="1" height="1" fill="#d6696c" fill-opacity="1.000"/>
          <rect x="17" y="20" width="1" height="1" fill="#ee999a" fill-opacity="1.000"/>
          <rect x="18" y="20" width="1" height="1" fill="#ee9c9a" fill-opacity="1.000"/>
          <rect x="19" y="20" width="1" height="1" fill="#ec9b99" fill-opacity="1.000"/>
          <rect x="20" y="20" width="1" height="1" fill="#e78483" fill-opacity="1.000"/>
          <rect x="21" y="20" width="1" height="1" fill="#dc7072" fill-opacity="1.000"/>
          <rect x="22" y="20" width="1" height="1" fill="#d46869" fill-opacity="1.000"/>
          <rect x="23" y="20" width="1" height="1" fill="#e68182" fill-opacity="1.000"/>
          <rect x="24" y="20" width="1" height="1" fill="#d86e6f" fill-opacity="1.000"/>
          <rect x="25" y="20" width="1" height="1" fill="#d86e6f" fill-opacity="1.000"/>
          <rect x="26" y="20" width="1" height="1" fill="#e2845f" fill-opacity="1.000"/>
          <rect x="27" y="20" width="1" height="1" fill="#d87677" fill-opacity="1.000"/>
          <rect x="28" y="20" width="1" height="1" fill="#b87173" fill-opacity="1.000"/>
          <rect x="11" y="21" width="1" height="1" fill="#b25f61" fill-opacity="1.000"/>
          <rect x="12" y="21" width="1" height="1" fill="#e68180" fill-opacity="1.000"/>
          <rect x="13" y="21" width="1" height="1" fill="#d97877" fill-opacity="1.000"/>
          <rect x="14" y="21" width="1" height="1" fill="#d97877" fill-opacity="1.000"/>
          <rect x="15" y="21" width="1" height="1" fill="#e88382" fill-opacity="1.000"/>
          <rect x="16" y="21" width="1" height="1" fill="#e77f7f" fill-opacity="1.000"/>
          <rect x="17" y="21" width="1" height="1" fill="#d86e70" fill-opacity="1.000"/>
          <rect x="18" y="21" width="1" height="1" fill="#e98081" fill-opacity="1.000"/>
          <rect x="19" y="21" width="1" height="1" fill="#ea9390" fill-opacity="1.000"/>
          <rect x="20" y="21" width="1" height="1" fill="#eea09e" fill-opacity="1.000"/>
          <rect x="21" y="21" width="1" height="1" fill="#ea8684" fill-opacity="1.000"/>
          <rect x="22" y="21" width="1" height="1" fill="#e88382" fill-opacity="1.000"/>
          <rect x="23" y="21" width="1" height="1" fill="#e2845f" fill-opacity="1.000"/>
          <rect x="24" y="21" width="1" height="1" fill="#ed8b89" fill-opacity="1.000"/>
          <rect x="25" y="21" width="1" height="1" fill="#ea8887" fill-opacity="1.000"/>
          <rect x="26" y="21" width="1" height="1" fill="#db7172" fill-opacity="1.000"/>
          <rect x="27" y="21" width="1" height="1" fill="#c4575a" fill-opacity="1.000"/>
          <rect x="28" y="21" width="1" height="1" fill="#d26565" fill-opacity="1.000"/>
          <rect x="10" y="22" width="1" height="1" fill="#a75152" fill-opacity="1.000"/>
          <rect x="11" y="22" width="1" height="1" fill="#d0696a" fill-opacity="1.000"/>
          <rect x="12" y="22" width="1" height="1" fill="#d97877" fill-opacity="1.000"/>
          <rect x="13" y="22" width="1" height="1" fill="#d97877" fill-opacity="1.000"/>
          <rect x="14" y="22" width="1" height="1" fill="#d86e6e" fill-opacity="1.000"/>
          <rect x="15" y="22" width="1" height="1" fill="#df7374" fill-opacity="1.000"/>
          <rect x="16" y="22" width="1" height="1" fill="#d97877" fill-opacity="1.000"/>
          <rect x="17" y="22" width="1" height="1" fill="#e78280" fill-opacity="1.000"/>
          <rect x="18" y="22" width="1" height="1" fill="#d3696b" fill-opacity="1.000"/>
          <rect x="19" y="22" width="1" height="1" fill="#e68281" fill-opacity="1.000"/>
          <rect x="20" y="22" width="1" height="1" fill="#e88281" fill-opacity="1.000"/>
          <rect x="21" y="22" width="1" height="1" fill="#d46a6b" fill-opacity="1.000"/>
          <rect x="22" y="22" width="1" height="1" fill="#e88584" fill-opacity="1.000"/>
          <rect x="23" y="22" width="1" height="1" fill="#e98383" fill-opacity="1.000"/>
          <rect x="24" y="22" width="1" height="1" fill="#e2845f" fill-opacity="1.000"/>
          <rect x="25" y="22" width="1" height="1" fill="#e67f7c" fill-opacity="1.000"/>
          <rect x="26" y="22" width="1" height="1" fill="#e68080" fill-opacity="1.000"/>
          <rect x="27" y="22" width="1" height="1" fill="#e2845f" fill-opacity="1.000"/>
          <rect x="28" y="22" width="1" height="1" fill="#d16867" fill-opacity="1.000"/>
          <rect x="29" y="22" width="1" height="1" fill="#bf7c7b" fill-opacity="1.000"/>
          <rect x="9" y="23" width="1" height="1" fill="#b4696b" fill-opacity="1.000"/>
          <rect x="10" y="23" width="1" height="1" fill="#e98e8d" fill-opacity="1.000"/>
          <rect x="11" y="23" width="1" height="1" fill="#d97877" fill-opacity="1.000"/>
          <rect x="12" y="23" width="1" height="1" fill="#d97877" fill-opacity="1.000"/>
          <rect x="13" y="23" width="1" height="1" fill="#7a3b3c" fill-opacity="1.000"/>
          <rect x="14" y="23" width="1" height="1" fill="#984a4b" fill-opacity="1.000"/>
          <rect x="15" y="23" width="1" height="1" fill="#db7171" fill-opacity="1.000"/>
          <rect x="16" y="23" width="1" height="1" fill="#d97877" fill-opacity="1.000"/>
          <rect x="17" y="23" width="1" height="1" fill="#e98886" fill-opacity="1.000"/>
          <rect x="18" y="23" width="1" height="1" fill="#ac5456" fill-opacity="1.000"/>
          <rect x="19" y="23" width="1" height="1" fill="#d76c6d" fill-opacity="1.000"/>
          <rect x="20" y="23" width="1" height="1" fill="#e98583" fill-opacity="1.000"/>
          <rect x="21" y="23" width="1" height="1" fill="#e98585" fill-opacity="1.000"/>
          <rect x="22" y="23" width="1" height="1" fill="#da6d70" fill-opacity="1.000"/>
          <rect x="23" y="23" width="1" height="1" fill="#e47c7d" fill-opacity="1.000"/>
          <rect x="24" y="23" width="1" height="1" fill="#e98585" fill-opacity="1.000"/>
          <rect x="25" y="23" width="1" height="1" fill="#d16566" fill-opacity="1.000"/>
          <rect x="26" y="23" width="1" height="1" fill="#e58180" fill-opacity="1.000"/>
          <rect x="27" y="23" width="1" height="1" fill="#e47d7d" fill-opacity="1.000"/>
          <rect x="28" y="23" width="1" height="1" fill="#e98483" fill-opacity="1.000"/>
          <rect x="29" y="23" width="1" height="1" fill="#d56b6c" fill-opacity="1.000"/>
          <rect x="8" y="24" width="1" height="1" fill="#ab5657" fill-opacity="1.000"/>
          <rect x="9" y="24" width="1" height="1" fill="#eb9492" fill-opacity="1.000"/>
          <rect x="10" y="24" width="1" height="1" fill="#e98785" fill-opacity="1.000"/>
          <rect x="11" y="24" width="1" height="1" fill="#d97877" fill-opacity="1.000"/>
          <rect x="12" y="24" width="1" height="1" fill="#d86e6e" fill-opacity="1.000"/>
          <rect x="13" y="24" width="1" height="1" fill="#5c2c2d" fill-opacity="1.000"/>
          <rect x="14" y="24" width="1" height="1" fill="#844041" fill-opacity="1.000"/>
          <rect x="15" y="24" width="1" height="1" fill="#d97877" fill-opacity="1.000"/>
          <rect x="16" y="24" width="1" height="1" fill="#e2845f" fill-opacity="1.000"/>
          <rect x="17" y="24" width="1" height="1" fill="#e98384" fill-opacity="1.000"/>
          <rect x="18" y="24" width="1" height="1" fill="#b25d61" fill-opacity="1.000"/>
          <rect x="19" y="24" width="1" height="1" fill="#d56b6d" fill-opacity="1.000"/>
          <rect x="20" y="24" width="1" height="1" fill="#e2845f" fill-opacity="1.000"/>
          <rect x="21" y="24" width="1" height="1" fill="#e78383" fill-opacity="1.000"/>
          <rect x="22" y="24" width="1" height="1" fill="#ea8787" fill-opacity="1.000"/>
          <rect x="23" y="24" width="1" height="1" fill="#d86d6f" fill-opacity="1.000"/>
          <rect x="24" y="24" width="1" height="1" fill="#e88684" fill-opacity="1.000"/>
          <rect x="25" y="24" width="1" height="1" fill="#d76c6d" fill-opacity="1.000"/>
          <rect x="26" y="24" width="1" height="1" fill="#d76d6f" fill-opacity="1.000"/>
          <rect x="27" y="24" width="1" height="1" fill="#cd6264" fill-opacity="1.000"/>
          <rect x="28" y="24" width="1" height="1" fill="#eb8685" fill-opacity="1.000"/>
          <rect x="29" y="24" width="1" height="1" fill="#ef9e5e" fill-opacity="1.000"/>
          <rect x="8" y="25" width="1" height="1" fill="#af5e5e" fill-opacity="1.000"/>
          <rect x="9" y="25" width="1" height="1" fill="#e98483" fill-opacity="1.000"/>
          <rect x="10" y="25" width="1" height="1" fill="#e8807f" fill-opacity="1.000"/>
          <rect x="11" y="25" width="1" height="1" fill="#d86e6e" fill-opacity="1.000"/>
          <rect x="12" y="25" width="1" height="1" fill="#e37879" fill-opacity="1.000"/>
          <rect x="13" y="25" width="1" height="1" fill="#703637" fill-opacity="1.000"/>
          <rect x="14" y="25" width="1" height="1" fill="#984a4c" fill-opacity="1.000"/>
          <rect x="15" y="25" width="1" height="1" fill="#d97877" fill-opacity="1.000"/>
          <rect x="16" y="25" width="1" height="1" fill="#dc7173" fill-opacity="1.000"/>
          <rect x="17" y="25" width="1" height="1" fill="#d66a6b" fill-opacity="1.000"/>
          <rect x="18" y="25" width="1" height="1" fill="#c95d5d" fill-opacity="1.000"/>
          <rect x="19" y="25" width="1" height="1" fill="#d06664" fill-opacity="1.000"/>
          <rect x="20" y="25" width="1" height="1" fill="#e2845f" fill-opacity="1.000"/>
          <rect x="21" y="25" width="1" height="1" fill="#d86d6e" fill-opacity="1.000"/>
          <rect x="22" y="25" width="1" height="1" fill="#ea8888" fill-opacity="1.000"/>
          <rect x="23" y="25" width="1" height="1" fill="#d16563" fill-opacity="1.000"/>
          <rect x="24" y="25" width="1" height="1" fill="#de7b5e" fill-opacity="1.000"/>
          <rect x="25" y="25" width="1" height="1" fill="#ed9a62" fill-opacity="1.000"/>
          <rect x="26" y="25" width="1" height="1" fill="#d7706d" fill-opacity="1.000"/>
          <rect x="27" y="25" width="1" height="1" fill="#d06465" fill-opacity="1.000"/>
          <rect x="28" y="25" width="1" height="1" fill="#cc5d5f" fill-opacity="1.000"/>
          <rect x="29" y="25" width="1" height="1" fill="#e47c7c" fill-opacity="1.000"/>
          <rect x="8" y="26" width="1" height="1" fill="#b56d6d" fill-opacity="1.000"/>
          <rect x="9" y="26" width="1" height="1" fill="#e98684" fill-opacity="1.000"/>
          <rect x="10" y="26" width="1" height="1" fill="#d36567" fill-opacity="1.000"/>
          <rect x="11" y="26" width="1" height="1" fill="#d97877" fill-opacity="1.000"/>
          <rect x="12" y="26" width="1" height="1" fill="#e78281" fill-opacity="1.000"/>
          <rect x="13" y="26" width="1" height="1" fill="#dc7173" fill-opacity="1.000"/>
          <rect x="14" y="26" width="1" height="1" fill="#dc7173" fill-opacity="1.000"/>
          <rect x="15" y="26" width="1" height="1" fill="#e2845f" fill-opacity="1.000"/>
          <rect x="16" y="26" width="1" height="1" fill="#d56a6b" fill-opacity="1.000"/>
          <rect x="17" y="26" width="1" height="1" fill="#a25151" fill-opacity="1.000"/>
          <rect x="18" y="26" width="1" height="1" fill="#ce6360" fill-opacity="1.000"/>
          <rect x="19" y="26" width="1" height="1" fill="#e2845f" fill-opacity="1.000"/>
          <rect x="20" y="26" width="1" height="1" fill="#d97072" fill-opacity="1.000"/>
          <rect x="21" y="26" width="1" height="1" fill="#e2845f" fill-opacity="1.000"/>
          <rect x="22" y="26" width="1" height="1" fill="#cf6464" fill-opacity="1.000"/>
          <rect x="23" y="26" width="1" height="1" fill="#dd7860" fill-opacity="1.000"/>
          <rect x="24" y="26" width="1" height="1" fill="#e98280" fill-opacity="1.000"/>
          <rect x="25" y="26" width="1" height="1" fill="#f39f69" fill-opacity="1.000"/>
          <rect x="26" y="26" width="1" height="1" fill="#e2845f" fill-opacity="1.000"/>
          <rect x="27" y="26" width="1" height="1" fill="#d06362" fill-opacity="1.000"/>
          <rect x="28" y="26" width="1" height="1" fill="#ae5758" fill-opacity="1.000"/>
          <rect x="29" y="26" width="1" height="1" fill="#d96f72" fill-opacity="1.000"/>
          <rect x="30" y="26" width="1" height="1" fill="#d36466" fill-opacity="1.000"/>
          <rect x="9" y="27" width="1" height="1" fill="#ae5c5c" fill-opacity="1.000"/>
          <rect x="10" y="27" width="1" height="1" fill="#ca5f5f" fill-opacity="1.000"/>
          <rect x="11" y="27" width="1" height="1" fill="#d86e6f" fill-opacity="1.000"/>
          <rect x="12" y="27" width="1" height="1" fill="#d97877" fill-opacity="1.000"/>
          <rect x="13" y="27" width="1" height="1" fill="#d97877" fill-opacity="1.000"/>
          <rect x="14" y="27" width="1" height="1" fill="#eb8987" fill-opacity="1.000"/>
          <rect x="15" y="27" width="1" height="1" fill="#d56a6c" fill-opacity="1.000"/>
          <rect x="16" y="27" width="1" height="1" fill="#a85355" fill-opacity="1.000"/>
          <rect x="17" y="27" width="1" height="1" fill="#d17373" fill-opacity="1.000"/>
          <rect x="18" y="27" width="1" height="1" fill="#e2845f" fill-opacity="1.000"/>
          <rect x="19" y="27" width="1" height="1" fill="#ea8585" fill-opacity="1.000"/>
          <rect x="20" y="27" width="1" height="1" fill="#da7273" fill-opacity="1.000"/>
          <rect x="21" y="27" width="1" height="1" fill="#d06264" fill-opacity="1.000"/>
          <rect x="22" y="27" width="1" height="1" fill="#de7b5e" fill-opacity="1.000"/>
          <rect x="23" y="27" width="1" height="1" fill="#e77f7f" fill-opacity="1.000"/>
          <rect x="24" y="27" width="1" height="1" fill="#f2965b" fill-opacity="1.000"/>
          <rect x="25" y="27" width="1" height="1" fill="#df7f58" fill-opacity="1.000"/>
          <rect x="26" y="27" width="1" height="1" fill="#cb5f5e" fill-opacity="1.000"/>
          <rect x="27" y="27" width="1" height="1" fill="#aa5357" fill-opacity="1.000"/>
          <rect x="28" y="27" width="1" height="1" fill="#db7274" fill-opacity="1.000"/>
          <rect x="29" y="27" width="1" height="1" fill="#cb5e60" fill-opacity="1.000"/>
          <rect x="30" y="27" width="1" height="1" fill="#d96d70" fill-opacity="1.000"/>
          <rect x="10" y="28" width="1" height="1" fill="#a45455" fill-opacity="1.000"/>
          <rect x="11" y="28" width="1" height="1" fill="#ce5f61" fill-opacity="1.000"/>
          <rect x="12" y="28" width="1" height="1" fill="#df7677" fill-opacity="1.000"/>
          <rect x="13" y="28" width="1" height="1" fill="#d76e6e" fill-opacity="1.000"/>
          <rect x="14" y="28" width="1" height="1" fill="#ac585b" fill-opacity="1.000"/>
          <rect x="15" y="28" width="1" height="1" fill="#ab5757" fill-opacity="1.000"/>
          <rect x="16" y="28" width="1" height="1" fill="#da7070" fill-opacity="1.000"/>
          <rect x="17" y="28" width="1" height="1" fill="#e99051" fill-opacity="1.000"/>
          <rect x="18" y="28" width="1" height="1" fill="#ea8586" fill-opacity="1.000"/>
          <rect x="19" y="28" width="1" height="1" fill="#d86d6e" fill-opacity="1.000"/>
          <rect x="20" y="28" width="1" height="1" fill="#d76a6b" fill-opacity="1.000"/>
          <rect x="21" y="28" width="1" height="1" fill="#dd7a5b" fill-opacity="1.000"/>
          <rect x="22" y="28" width="1" height="1" fill="#e2845f" fill-opacity="1.000"/>
          <rect x="23" y="28" width="1" height="1" fill="#d46869" fill-opacity="1.000"/>
          <rect x="24" y="28" width="1" height="1" fill="#de7475" fill-opacity="1.000"/>
          <rect x="25" y="28" width="1" height="1" fill="#cf6261" fill-opacity="1.000"/>
          <rect x="26" y="28" width="1" height="1" fill="#a35051" fill-opacity="1.000"/>
          <rect x="27" y="28" width="1" height="1" fill="#da7172" fill-opacity="1.000"/>
          <rect x="28" y="28" width="1" height="1" fill="#cc5f60" fill-opacity="1.000"/>
          <rect x="29" y="28" width="1" height="1" fill="#da7172" fill-opacity="1.000"/>
          <rect x="30" y="28" width="1" height="1" fill="#ae5857" fill-opacity="1.000"/>
          <rect x="11" y="29" width="1" height="1" fill="#b66768" fill-opacity="1.000"/>
          <rect x="12" y="29" width="1" height="1" fill="#c75b5c" fill-opacity="1.000"/>
          <rect x="13" y="29" width="1" height="1" fill="#cb5f5e" fill-opacity="1.000"/>
          <rect x="14" y="29" width="1" height="1" fill="#d76d6f" fill-opacity="1.000"/>
          <rect x="15" y="29" width="1" height="1" fill="#d56b6b" fill-opacity="1.000"/>
          <rect x="16" y="29" width="1" height="1" fill="#eb8888" fill-opacity="1.000"/>
          <rect x="17" y="29" width="1" height="1" fill="#e2845f" fill-opacity="1.000"/>
          <rect x="18" y="29" width="1" height="1" fill="#e1787a" fill-opacity="1.000"/>
          <rect x="19" y="29" width="1" height="1" fill="#c75b5d" fill-opacity="1.000"/>
          <rect x="20" y="29" width="1" height="1" fill="#da7273" fill-opacity="1.000"/>
          <rect x="21" y="29" width="1" height="1" fill="#e2845f" fill-opacity="1.000"/>
          <rect x="22" y="29" width="1" height="1" fill="#dc7275" fill-opacity="1.000"/>
          <rect x="23" y="29" width="1" height="1" fill="#d76a6c" fill-opacity="1.000"/>
          <rect x="24" y="29" width="1" height="1" fill="#c65b5b" fill-opacity="1.000"/>
          <rect x="25" y="29" width="1" height="1" fill="#b95d5f" fill-opacity="1.000"/>
          <rect x="26" y="29" width="1" height="1" fill="#d56a6d" fill-opacity="1.000"/>
          <rect x="27" y="29" width="1" height="1" fill="#cf6263" fill-opacity="1.000"/>
          <rect x="28" y="29" width="1" height="1" fill="#d86d6e" fill-opacity="1.000"/>
          <rect x="29" y="29" width="1" height="1" fill="#ac5b5c" fill-opacity="1.000"/>
          <rect x="12" y="30" width="1" height="1" fill="#b26767" fill-opacity="1.000"/>
          <rect x="13" y="30" width="1" height="1" fill="#c55c5b" fill-opacity="1.000"/>
          <rect x="14" y="30" width="1" height="1" fill="#c45759" fill-opacity="1.000"/>
          <rect x="15" y="30" width="1" height="1" fill="#da7272" fill-opacity="1.000"/>
          <rect x="16" y="30" width="1" height="1" fill="#d3696c" fill-opacity="1.000"/>
          <rect x="17" y="30" width="1" height="1" fill="#da6f71" fill-opacity="1.000"/>
          <rect x="18" y="30" width="1" height="1" fill="#d66b6c" fill-opacity="1.000"/>
          <rect x="19" y="30" width="1" height="1" fill="#d56d6e" fill-opacity="1.000"/>
          <rect x="20" y="30" width="1" height="1" fill="#d86e70" fill-opacity="1.000"/>
          <rect x="21" y="30" width="1" height="1" fill="#d87070" fill-opacity="1.000"/>
          <rect x="22" y="30" width="1" height="1" fill="#d86e71" fill-opacity="1.000"/>
          <rect x="23" y="30" width="1" height="1" fill="#d36768" fill-opacity="1.000"/>
          <rect x="24" y="30" width="1" height="1" fill="#d86d6d" fill-opacity="1.000"/>
          <rect x="25" y="30" width="1" height="1" fill="#d46a6b" fill-opacity="1.000"/>
          <rect x="26" y="30" width="1" height="1" fill="#cc6162" fill-opacity="1.000"/>
          <rect x="27" y="30" width="1" height="1" fill="#d97072" fill-opacity="1.000"/>
          <rect x="28" y="30" width="1" height="1" fill="#a95454" fill-opacity="1.000"/>
          <rect x="13" y="31" width="1" height="1" fill="#b46566" fill-opacity="1.000"/>
          <rect x="14" y="31" width="1" height="1" fill="#a34f50" fill-opacity="1.000"/>
          <rect x="15" y="31" width="1" height="1" fill="#c45759" fill-opacity="1.000"/>
          <rect x="16" y="31" width="1" height="1" fill="#b56b6b" fill-opacity="1.000"/>
          <rect x="17" y="31" width="1" height="1" fill="#b76b6c" fill-opacity="1.000"/>
          <rect x="18" y="31" width="1" height="1" fill="#a25151" fill-opacity="1.000"/>
          <rect x="19" y="31" width="1" height="1" fill="#cc6d6f" fill-opacity="1.000"/>
          <rect x="20" y="31" width="1" height="1" fill="#c86264" fill-opacity="1.000"/>
          <rect x="21" y="31" width="1" height="1" fill="#ae5759" fill-opacity="1.000"/>
          <rect x="22" y="31" width="1" height="1" fill="#aa5354" fill-opacity="1.000"/>
          <rect x="23" y="31" width="1" height="1" fill="#dd7576" fill-opacity="1.000"/>
          <rect x="24" y="31" width="1" height="1" fill="#d97953" fill-opacity="1.000"/>
          <rect x="25" y="31" width="1" height="1" fill="#d66c6e" fill-opacity="1.000"/>
          <rect x="26" y="31" width="1" height="1" fill="#de7475" fill-opacity="1.000"/>
          <rect x="27" y="31" width="1" height="1" fill="#b36a6b" fill-opacity="1.000"/>
          <rect x="23" y="32" width="1" height="1" fill="#ac595a" fill-opacity="1.000"/>
          <rect x="24" y="32" width="1" height="1" fill="#b06363" fill-opacity="1.000"/>
          <rect x="25" y="32" width="1" height="1" fill="#ad5a5a" fill-opacity="1.000"/>
          <rect x="26" y="32" width="1" height="1" fill="#b76e6e" fill-opacity="1.000"/>
        </g>
        <g id="SPFishbun-3-*{id}-tail">
          <rect x="35" y="16" width="1" height="1" fill="#914548" fill-opacity="1.000"/>
          <rect x="36" y="16" width="1" height="1" fill="#a14f50" fill-opacity="1.000"/>
          <rect x="37" y="16" width="1" height="1" fill="#a25253" fill-opacity="1.000"/>
          <rect x="34" y="17" width="1" height="1" fill="#9b5051" fill-opacity="1.000"/>
          <rect x="35" y="17" width="1" height="1" fill="#eb8785" fill-opacity="1.000"/>
          <rect x="36" y="17" width="1" height="1" fill="#eb8b8c" fill-opacity="1.000"/>
          <rect x="37" y="17" width="1" height="1" fill="#c16162" fill-opacity="1.000"/>
          <rect x="33" y="18" width="1" height="1" fill="#a75657" fill-opacity="1.000"/>
          <rect x="34" y="18" width="1" height="1" fill="#e47f7e" fill-opacity="1.000"/>
          <rect x="35" y="18" width="1" height="1" fill="#e37f7e" fill-opacity="1.000"/>
          <rect x="36" y="18" width="1" height="1" fill="#e78484" fill-opacity="1.000"/>
          <rect x="37" y="18" width="1" height="1" fill="#c46265" fill-opacity="1.000"/>
          <rect x="32" y="19" width="1" height="1" fill="#b2605f" fill-opacity="1.000"/>
          <rect x="33" y="19" width="1" height="1" fill="#e68081" fill-opacity="1.000"/>
          <rect x="34" y="19" width="1" height="1" fill="#e48e6c" fill-opacity="1.000"/>
          <rect x="35" y="19" width="1" height="1" fill="#d16768" fill-opacity="1.000"/>
          <rect x="36" y="19" width="1" height="1" fill="#d76e70" fill-opacity="1.000"/>
          <rect x="37" y="19" width="1" height="1" fill="#c26b6b" fill-opacity="1.000"/>
          <rect x="31" y="20" width="1" height="1" fill="#b46365" fill-opacity="1.000"/>
          <rect x="32" y="20" width="1" height="1" fill="#e6807f" fill-opacity="1.000"/>
          <rect x="33" y="20" width="1" height="1" fill="#e48e6c" fill-opacity="1.000"/>
          <rect x="34" y="20" width="1" height="1" fill="#d66a6b" fill-opacity="1.000"/>
          <rect x="35" y="20" width="1" height="1" fill="#e98686" fill-opacity="1.000"/>
          <rect x="36" y="20" width="1" height="1" fill="#ec8b8c" fill-opacity="1.000"/>
          <rect x="37" y="20" width="1" height="1" fill="#b35f62" fill-opacity="1.000"/>
          <rect x="30" y="21" width="1" height="1" fill="#ad5b5d" fill-opacity="1.000"/>
          <rect x="31" y="21" width="1" height="1" fill="#ec9b99" fill-opacity="1.000"/>
          <rect x="32" y="21" width="1" height="1" fill="#e88181" fill-opacity="1.000"/>
          <rect x="33" y="21" width="1" height="1" fill="#d76c6d" fill-opacity="1.000"/>
          <rect x="34" y="21" width="1" height="1" fill="#e98282" fill-opacity="1.000"/>
          <rect x="35" y="21" width="1" height="1" fill="#e48e6c" fill-opacity="1.000"/>
          <rect x="36" y="21" width="1" height="1" fill="#e58081" fill-opacity="1.000"/>
          <rect x="37" y="21" width="1" height="1" fill="#bb5b5e" fill-opacity="1.000"/>
          <rect x="30" y="22" width="1" height="1" fill="#d66d70" fill-opacity="1.000"/>
          <rect x="31" y="22" width="1" height="1" fill="#eb8889" fill-opacity="1.000"/>
          <rect x="32" y="22" width="1" height="1" fill="#d56c6a" fill-opacity="1.000"/>
          <rect x="33" y="22" width="1" height="1" fill="#ed9a62" fill-opacity="1.000"/>
          <rect x="34" y="22" width="1" height="1" fill="#e48e6c" fill-opacity="1.000"/>
          <rect x="35" y="22" width="1" height="1" fill="#d26473" fill-opacity="1.000"/>
          <rect x="36" y="22" width="1" height="1" fill="#da7474" fill-opacity="1.000"/>
          <rect x="37" y="22" width="1" height="1" fill="#ba5d5e" fill-opacity="1.000"/>
          <rect x="30" y="23" width="1" height="1" fill="#d87174" fill-opacity="1.000"/>
          <rect x="31" y="23" width="1" height="1" fill="#c5595b" fill-opacity="1.000"/>
          <rect x="32" y="23" width="1" height="1" fill="#e47f80" fill-opacity="1.000"/>
          <rect x="33" y="23" width="1" height="1" fill="#e48e6c" fill-opacity="1.000"/>
          <rect x="34" y="23" width="1" height="1" fill="#e37e7a" fill-opacity="1.000"/>
          <rect x="35" y="23" width="1" height="1" fill="#d86c6c" fill-opacity="1.000"/>
          <rect x="36" y="23" width="1" height="1" fill="#d56f6f" fill-opacity="1.000"/>
          <rect x="37" y="23" width="1" height="1" fill="#b45153" fill-opacity="1.000"/>
          <rect x="30" y="24" width="1" height="1" fill="#9a4b4c" fill-opacity="1.000"/>
          <rect x="31" y="24" width="1" height="1" fill="#c5595b" fill-opacity="1.000"/>
          <rect x="32" y="24" width="1" height="1" fill="#e2845f" fill-opacity="1.000"/>
          <rect x="33" y="24" width="1" height="1" fill="#db726f" fill-opacity="1.000"/>
          <rect x="34" y="24" width="1" height="1" fill="#e88483" fill-opacity="1.000"/>
          <rect x="35" y="24" width="1" height="1" fill="#e98184" fill-opacity="1.000"/>
          <rect x="36" y="24" width="1" height="1" fill="#ee8889" fill-opacity="1.000"/>
          <rect x="37" y="24" width="1" height="1" fill="#e27d7c" fill-opacity="1.000"/>
          <rect x="38" y="24" width="1" height="1" fill="#b06666" fill-opacity="1.000"/>
          <rect x="30" y="25" width="1" height="1" fill="#d46969" fill-opacity="1.000"/>
          <rect x="31" y="25" width="1" height="1" fill="#a85555" fill-opacity="1.000"/>
          <rect x="32" y="25" width="1" height="1" fill="#d56c6a" fill-opacity="1.000"/>
          <rect x="33" y="25" width="1" height="1" fill="#ce6260" fill-opacity="1.000"/>
          <rect x="34" y="25" width="1" height="1" fill="#dd7573" fill-opacity="1.000"/>
          <rect x="35" y="25" width="1" height="1" fill="#f2965b" fill-opacity="1.000"/>
          <rect x="36" y="25" width="1" height="1" fill="#e2845f" fill-opacity="1.000"/>
          <rect x="37" y="25" width="1" height="1" fill="#e98484" fill-opacity="1.000"/>
          <rect x="38" y="25" width="1" height="1" fill="#bb797a" fill-opacity="1.000"/>
          <rect x="31" y="26" width="1" height="1" fill="#a85555" fill-opacity="1.000"/>
          <rect x="32" y="26" width="1" height="1" fill="#e38263" fill-opacity="1.000"/>
          <rect x="33" y="26" width="1" height="1" fill="#ef8f8d" fill-opacity="1.000"/>
          <rect x="34" y="26" width="1" height="1" fill="#f2965b" fill-opacity="1.000"/>
          <rect x="35" y="26" width="1" height="1" fill="#dc6b7a" fill-opacity="1.000"/>
          <rect x="36" y="26" width="1" height="1" fill="#d76a6e" fill-opacity="1.000"/>
          <rect x="37" y="26" width="1" height="1" fill="#e98587" fill-opacity="1.000"/>
          <rect x="38" y="26" width="1" height="1" fill="#eb8787" fill-opacity="1.000"/>
          <rect x="39" y="26" width="1" height="1" fill="#ad5a5c" fill-opacity="1.000"/>
          <rect x="31" y="27" width="1" height="1" fill="#d86d6f" fill-opacity="1.000"/>
          <rect x="32" y="27" width="1" height="1" fill="#dc7576" fill-opacity="1.000"/>
          <rect x="33" y="27" width="1" height="1" fill="#da7173" fill-opacity="1.000"/>
          <rect x="34" y="27" width="1" height="1" fill="#d86d70" fill-opacity="1.000"/>
          <rect x="35" y="27" width="1" height="1" fill="#ed8988" fill-opacity="1.000"/>
          <rect x="36" y="27" width="1" height="1" fill="#e67a8f" fill-opacity="1.000"/>
          <rect x="37" y="27" width="1" height="1" fill="#e2845f" fill-opacity="1.000"/>
          <rect x="38" y="27" width="1" height="1" fill="#e77c7d" fill-opacity="1.000"/>
          <rect x="39" y="27" width="1" height="1" fill="#b06668" fill-opacity="1.000"/>
          <rect x="31" y="28" width="1" height="1" fill="#ae5c5c" fill-opacity="1.000"/>
          <rect x="32" y="28" width="1" height="1" fill="#a95355" fill-opacity="1.000"/>
          <rect x="33" y="28" width="1" height="1" fill="#d16464" fill-opacity="1.000"/>
          <rect x="34" y="28" width="1" height="1" fill="#d46d6c" fill-opacity="1.000"/>
          <rect x="35" y="28" width="1" height="1" fill="#d46b6d" fill-opacity="1.000"/>
          <rect x="36" y="28" width="1" height="1" fill="#d76e6e" fill-opacity="1.000"/>
          <rect x="37" y="28" width="1" height="1" fill="#d86e6e" fill-opacity="1.000"/>
          <rect x="38" y="28" width="1" height="1" fill="#d96f70" fill-opacity="1.000"/>
          <rect x="39" y="28" width="1" height="1" fill="#ad6061" fill-opacity="1.000"/>
          <rect x="33" y="29" width="1" height="1" fill="#ac6a68" fill-opacity="1.000"/>
          <rect x="34" y="29" width="1" height="1" fill="#b05d5e" fill-opacity="1.000"/>
          <rect x="35" y="29" width="1" height="1" fill="#a24f4f" fill-opacity="1.000"/>
          <rect x="36" y="29" width="1" height="1" fill="#a25252" fill-opacity="1.000"/>
          <rect x="37" y="29" width="1" height="1" fill="#a14e4f" fill-opacity="1.000"/>
          <rect x="38" y="29" width="1" height="1" fill="#ae5759" fill-opacity="1.000"/>
          <rect x="39" y="29" width="1" height="1" fill="#be5454" fill-opacity="1.000"/>
        </g>
        <g id="SPFishbun-3-*{id}-bubble1">
          <rect x="7" y="11" width="1" height="1" fill="#cd701b" fill-opacity="1.000"/>
          <rect x="8" y="11" width="1" height="1" fill="#de7e25" fill-opacity="1.000"/>
          <rect x="9" y="11" width="1" height="1" fill="#c1761f" fill-opacity="1.000"/>
          <rect x="10" y="11" width="1" height="1" fill="#cf7c17" fill-opacity="1.000"/>
          <rect x="6" y="12" width="1" height="1" fill="#cf7c17" fill-opacity="1.000"/>
          <rect x="7" y="12" width="1" height="1" fill="#f7ad25" fill-opacity="1.000"/>
          <rect x="8" y="12" width="1" height="1" fill="#fcb526" fill-opacity="1.000"/>
          <rect x="9" y="12" width="1" height="1" fill="#fab125" fill-opacity="1.000"/>
          <rect x="10" y="12" width="1" height="1" fill="#e98e1b" fill-opacity="1.000"/>
          <rect x="11" y="12" width="1" height="1" fill="#cf7c17" fill-opacity="1.000"/>
          <rect x="5" y="13" width="1" height="1" fill="#cf7c17" fill-opacity="1.000"/>
          <rect x="6" y="13" width="1" height="1" fill="#fdb627" fill-opacity="1.000"/>
          <rect x="7" y="13" width="1" height="1" fill="#ffde4a" fill-opacity="1.000"/>
          <rect x="8" y="13" width="1" height="1" fill="#ffdb3d" fill-opacity="1.000"/>
          <rect x="9" y="13" width="1" height="1" fill="#ffd22a" fill-opacity="1.000"/>
          <rect x="10" y="13" width="1" height="1" fill="#fdba27" fill-opacity="1.000"/>
          <rect x="11" y="13" width="1" height="1" fill="#eb901c" fill-opacity="1.000"/>
          <rect x="12" y="13" width="1" height="1" fill="#c36e16" fill-opacity="1.000"/>
          <rect x="5" y="14" width="1" height="1" fill="#cf7c17" fill-opacity="1.000"/>
          <rect x="6" y="14" width="1" height="1" fill="#ffd328" fill-opacity="1.000"/>
          <rect x="7" y="14" width="1" height="1" fill="#ffd32a" fill-opacity="1.000"/>
          <rect x="8" y="14" width="1" height="1" fill="#fec629" fill-opacity="1.000"/>
          <rect x="9" y="14" width="1" height="1" fill="#fdb826" fill-opacity="1.000"/>
          <rect x="10" y="14" width="1" height="1" fill="#feb827" fill-opacity="1.000"/>
          <rect x="11" y="14" width="1" height="1" fill="#eb901b" fill-opacity="1.000"/>
          <rect x="12" y="14" width="1" height="1" fill="#c36e16" fill-opacity="1.000"/>
          <rect x="5" y="15" width="1" height="1" fill="#c36e16" fill-opacity="1.000"/>
          <rect x="6" y="15" width="1" height="1" fill="#fdbe27" fill-opacity="1.000"/>
          <rect x="7" y="15" width="1" height="1" fill="#fdbf28" fill-opacity="1.000"/>
          <rect x="8" y="15" width="1" height="1" fill="#fdbb27" fill-opacity="1.000"/>
          <rect x="9" y="15" width="1" height="1" fill="#fab226" fill-opacity="1.000"/>
          <rect x="10" y="15" width="1" height="1" fill="#eb9220" fill-opacity="1.000"/>
          <rect x="11" y="15" width="1" height="1" fill="#eb931b" fill-opacity="1.000"/>
          <rect x="12" y="15" width="1" height="1" fill="#b56614" fill-opacity="1.000"/>
          <rect x="5" y="16" width="1" height="1" fill="#9b5b19" fill-opacity="1.000"/>
          <rect x="6" y="16" width="1" height="1" fill="#ec9721" fill-opacity="1.000"/>
          <rect x="7" y="16" width="1" height="1" fill="#f5a723" fill-opacity="1.000"/>
          <rect x="8" y="16" width="1" height="1" fill="#f7aa23" fill-opacity="1.000"/>
          <rect x="9" y="16" width="1" height="1" fill="#f5a523" fill-opacity="1.000"/>
          <rect x="10" y="16" width="1" height="1" fill="#e5841d" fill-opacity="1.000"/>
          <rect x="11" y="16" width="1" height="1" fill="#e07f1a" fill-opacity="1.000"/>
          <rect x="12" y="16" width="1" height="1" fill="#9b5b19" fill-opacity="1.000"/>
          <rect x="6" y="17" width="1" height="1" fill="#c36e16" fill-opacity="1.000"/>
          <rect x="7" y="17" width="1" height="1" fill="#e7891b" fill-opacity="1.000"/>
          <rect x="8" y="17" width="1" height="1" fill="#ea8f1c" fill-opacity="1.000"/>
          <rect x="9" y="17" width="1" height="1" fill="#ea8f1c" fill-opacity="1.000"/>
          <rect x="10" y="17" width="1" height="1" fill="#e98d1b" fill-opacity="1.000"/>
          <rect x="11" y="17" width="1" height="1" fill="#c36e16" fill-opacity="1.000"/>
          <rect x="7" y="18" width="1" height="1" fill="#ac5517" fill-opacity="1.000"/>
          <rect x="8" y="18" width="1" height="1" fill="#b56614" fill-opacity="1.000"/>
          <rect x="9" y="18" width="1" height="1" fill="#a75e12" fill-opacity="1.000"/>
          <rect x="10" y="18" width="1" height="1" fill="#995611" fill-opacity="1.000"/>
        </g>
        <g id="SPFishbun-3-*{id}-bubble2">
          <rect x="4" y="19" width="1" height="1" fill="#cf7c17" fill-opacity="1.000"/>
          <rect x="5" y="19" width="1" height="1" fill="#cf7c17" fill-opacity="1.000"/>
          <rect x="3" y="20" width="1" height="1" fill="#e88e1f" fill-opacity="1.000"/>
          <rect x="4" y="20" width="1" height="1" fill="#e88e1f" fill-opacity="1.000"/>
          <rect x="5" y="20" width="1" height="1" fill="#e88b1f" fill-opacity="1.000"/>
          <rect x="6" y="20" width="1" height="1" fill="#e88e1f" fill-opacity="1.000"/>
          <rect x="2" y="21" width="1" height="1" fill="#cf7c17" fill-opacity="1.000"/>
          <rect x="3" y="21" width="1" height="1" fill="#eb941d" fill-opacity="1.000"/>
          <rect x="4" y="21" width="1" height="1" fill="#ffd329" fill-opacity="1.000"/>
          <rect x="5" y="21" width="1" height="1" fill="#fcb627" fill-opacity="1.000"/>
          <rect x="6" y="21" width="1" height="1" fill="#e67725" fill-opacity="1.000"/>
          <rect x="7" y="21" width="1" height="1" fill="#d17615" fill-opacity="1.000"/>
          <rect x="2" y="22" width="1" height="1" fill="#cf7c17" fill-opacity="1.000"/>
          <rect x="3" y="22" width="1" height="1" fill="#eb911d" fill-opacity="1.000"/>
          <rect x="4" y="22" width="1" height="1" fill="#fcb626" fill-opacity="1.000"/>
          <rect x="5" y="22" width="1" height="1" fill="#fbb527" fill-opacity="1.000"/>
          <rect x="6" y="22" width="1" height="1" fill="#d46718" fill-opacity="1.000"/>
          <rect x="7" y="22" width="1" height="1" fill="#b56613" fill-opacity="1.000"/>
          <rect x="3" y="23" width="1" height="1" fill="#e88e1f" fill-opacity="1.000"/>
          <rect x="4" y="23" width="1" height="1" fill="#e26e1a" fill-opacity="1.000"/>
          <rect x="5" y="23" width="1" height="1" fill="#e16e1a" fill-opacity="1.000"/>
          <rect x="6" y="23" width="1" height="1" fill="#e88e1f" fill-opacity="1.000"/>
          <rect x="4" y="24" width="1" height="1" fill="#c36e14" fill-opacity="1.000"/>
          <rect x="5" y="24" width="1" height="1" fill="#b56613" fill-opacity="1.000"/>
        </g>
      </g>
    </g>
  </g>
</svg>